<?xml version="1.0" encoding="UTF-8" standalone="no"?>
<!-- Created with Inkscape (http://www.inkscape.org/) -->

<svg
   xmlns:dc="http://purl.org/dc/elements/1.1/"
   xmlns:cc="http://creativecommons.org/ns#"
   xmlns:rdf="http://www.w3.org/1999/02/22-rdf-syntax-ns#"
   xmlns:svg="http://www.w3.org/2000/svg"
   xmlns="http://www.w3.org/2000/svg"
   xmlns:sodipodi="http://sodipodi.sourceforge.net/DTD/sodipodi-0.dtd"
   xmlns:inkscape="http://www.inkscape.org/namespaces/inkscape"
   width="744.09448819"
   height="1052.3622047"
   id="svg2"
   version="1.1"
   inkscape:version="0.48.2 r9819"
   sodipodi:docname="blonde-humble.svg"
   inkscape:export-filename="D:\Dropbox\векторизация\deviant\inga\inga_humble blonde.png"
   inkscape:export-xdpi="90"
   inkscape:export-ydpi="90">
  <title
     id="title3291">sitting beaty</title>
  <defs
     id="defs4">
    <clipPath
       clipPathUnits="userSpaceOnUse"
       id="clipPath4614">
      <rect
         style="opacity:0.75087723;fill:#000000;fill-opacity:1;fill-rule:nonzero;stroke:#ffffff;stroke-width:0.40000001;stroke-linecap:round;stroke-linejoin:round;stroke-miterlimit:4;stroke-opacity:1;stroke-dasharray:none"
         id="rect4616"
         width="480.83261"
         height="482.85291"
         x="48.48732"
         y="226.05742" />
    </clipPath>
  </defs>
  <sodipodi:namedview
     id="base"
     pagecolor="#ffffff"
     bordercolor="#666666"
     borderopacity="1.0"
     inkscape:pageopacity="0.0"
     inkscape:pageshadow="2"
     inkscape:zoom="0.7"
     inkscape:cx="-334.57456"
     inkscape:cy="624.97396"
     inkscape:document-units="px"
     inkscape:current-layer="layer8"
     showgrid="false"
     inkscape:window-width="1219"
     inkscape:window-height="703"
     inkscape:window-x="20"
     inkscape:window-y="3"
     inkscape:window-maximized="0" />
  <metadata
     id="metadata7">
    <rdf:RDF>
      <cc:Work
         rdf:about="">
        <dc:format>image/svg+xml</dc:format>
        <dc:type
           rdf:resource="http://purl.org/dc/dcmitype/StillImage" />
        <dc:title>sitting beaty</dc:title>
        <dc:subject>
          <rdf:Bag>
            <rdf:li>pin-up girl</rdf:li>
            <rdf:li>female</rdf:li>
            <rdf:li>blonde</rdf:li>
            <rdf:li>cartoon</rdf:li>
            <rdf:li>blackandwhite</rdf:li>
            <rdf:li>lineart</rdf:li>
          </rdf:Bag>
        </dc:subject>
        <dc:creator>
          <cc:Agent>
            <dc:title>net-uash</dc:title>
          </cc:Agent>
        </dc:creator>
        <dc:date>11-05-2017</dc:date>
      </cc:Work>
    </rdf:RDF>
  </metadata>
  <g
     inkscape:groupmode="layer"
     id="layer8"
     inkscape:label="base layer"
     sodipodi:insensitive="true"
     style="display:none">
    <g
       transform="translate(-2.0333082,2.5427327)"
       id="g5251"
       inkscape:transform-center-x="-83.067323"
       inkscape:transform-center-y="-287.51583"
       style="opacity:0.9;fill:#ffffff;stroke:none;display:inline">
      <g
         id="g5253"
         transform="translate(1.3689738e-6,0)"
         style="fill:#ffffff;stroke:none">
        <g
           transform="translate(0.40447114,-0.49719184)"
           id="g5255"
           style="fill:#ffffff;stroke:none;display:inline">
          <g
             transform="translate(-0.41841878,-0.17331453)"
             id="g5257"
             style="fill:#ffffff;stroke:none">
            <g
               id="g5259"
               style="fill:#ffffff;stroke:none">
              <path
                 sodipodi:nodetypes="cc"
                 inkscape:connector-curvature="0"
                 id="path5261"
                 d="m 381.03125,262.25 c -254.48772,525.75989 -127.24386,262.87994 0,0 z"
                 style="font-size:medium;font-style:normal;font-variant:normal;font-weight:normal;font-stretch:normal;text-indent:0;text-align:start;text-decoration:none;line-height:normal;letter-spacing:normal;word-spacing:normal;text-transform:none;direction:ltr;block-progression:tb;writing-mode:lr-tb;text-anchor:start;baseline-shift:baseline;color:#000000;fill:#ffffff;fill-opacity:1;stroke:none;stroke-width:1px;marker:none;visibility:visible;display:inline;overflow:visible;enable-background:accumulate;font-family:Sans;-inkscape-font-specification:Sans" />
              <path
                 style="font-size:medium;font-style:normal;font-variant:normal;font-weight:normal;font-stretch:normal;text-indent:0;text-align:start;text-decoration:none;line-height:normal;letter-spacing:normal;word-spacing:normal;text-transform:none;direction:ltr;block-progression:tb;writing-mode:lr-tb;text-anchor:start;baseline-shift:baseline;color:#000000;fill:#ffffff;stroke:none;stroke-width:1px;marker:none;visibility:visible;display:inline;overflow:visible;enable-background:accumulate;font-family:Sans;-inkscape-font-specification:Sans"
                 d="m 270.25347,464.6297 c 10.45332,18.99959 8.96394,40.71534 5.97416,60.53086 -0.82496,3.26982 -2.65312,4.83799 -5.57143,7.87054 -2.92651,3.04108 -6.7542,6.38035 -11.09375,10.84375 -8.67911,8.92681 -19.41157,22.3567 -29.21875,47.15625 l 0,0.0312 c -5.63099,15.54825 -18.18278,40.17162 -24.71875,63.93304 -6.51011,23.66738 -10.29145,48.64437 -2.84821,65.13839 -6.20304,35.04432 0.0557,57.37981 4.10906,69.9734 6.03515,18.75084 5.8749,25.47443 6.26147,33.84803 l -0.42847,17.51354 c -14.78966,22.08912 -16.35035,50.14427 -12.95611,67.0313 6.86279,34.14385 11.48825,49.95623 16.73731,56.3125 2.62453,3.17814 5.25742,3.9863 7.59375,3.3125 2.33633,-0.6738 4.30458,-2.67119 6.09375,-4.84375 l 0.0625,-0.0625 0.0312,-0.125 10.62342,-19.67069 2.43034,-4.078 c 1.83695,3.88214 4.04615,5.74095 7.73971,11.26129 2.90778,3.56398 4.20506,6.74916 10.9375,6.12946 1.16082,-0.1234 2.07263,-0.55584 2.6875,-1.21875 2.37892,-5.34177 3.4616,-15.94266 -0.95733,-16.9126 -5.9317,-0.36901 4.87233,-43.0466 5.21551,-43.79726 9.34374,-20.43837 6.83737,-26.19937 3.36677,-36.54009 -2.2764,-6.78259 -5.77657,-9.66553 -7.48661,-20.10268 l -3.10427,-7.04875 c -1.67141,-12.14332 5.6827,-15.74662 17.21264,-42.15134 8.76533,-20.0735 14.48836,-43.32662 5.16509,-72.25315 -1.85097,-12.14456 -4.97273,-17.62757 -0.36152,-26.89864 3.24362,-6.52147 12.36691,-14.94554 21.40179,-18.20536 30.3353,-10.94509 65.75171,-24.29602 85.14732,-36.08477 19.19099,-11.87632 33.06739,-42.44117 14.23214,-92.45982 l -0.0312,-0.0312 0,-0.0625 c -22.19022,-35.63884 -23.61884,-58.13328 -20.74107,-74.23214 2.87777,-16.09886 5.29595,-17.76368 13.5211,-37.77627 6.87596,-3.8942 10.72146,-10.06125 15.57711,-13.95545 4.76192,33.92857 15.2381,51.07143 32.85715,91.07143 -0.2381,105.71428 23.09523,168.57142 42.14285,175.71428 0,0 5.40355,11.56599 6.11784,14.42314 0.71428,2.85714 5.4003,-9.46971 5.4003,-9.46971 7.3816,2.56926 9.39711,8.6445 12.43581,15.64572 3.09534,7.13171 6.62582,2.95825 3.37273,-5.53789 -0.83683,-6.99141 -1.67367,-6.65922 -4.73967,-13.57112 10.21992,6.9785 16.77126,21.81304 17.78809,15.60938 0.76292,-4.65456 -0.66054,-5.89902 -3.06636,-9.36493 -16.91086,-24.36244 -14.91334,-25.13864 -14.91334,-25.13864 5.98396,2.49847 18.33222,18.31322 18.02302,12.57736 -0.47619,-10.23809 -9.5238,-12.2619 -12.14285,-22.14285 -2.15678,-8.13695 -7.50001,-37.14285 -28.37888,-42.96198 0.51291,-30.37462 19.01065,-52.72625 4.4303,-109.42748 -13.0303,-29.32086 -10.10834,-62.52275 -16.13278,-89.25899 -8.63643,-37.64913 -16.78566,-51.81207 -19.97637,-65.71744 -1.64978,-7.18987 -4.0266,-13.34072 -7.88416,-18.22654 -3.85757,-4.88581 -9.19589,-8.50658 -16.76869,-10.6363 -7.45746,-2.09728 -19.30486,-2.01212 -25.89225,-1.89029 8.38708,-19.13393 16.61755,-31.97751 12.45099,-49.74763 -0.003,-0.0125 0.003,-0.0188 0,-0.0312 -2.97274,-17.24639 10.19405,-30.5072 15.81829,-49.04788 5.62425,-18.54068 3.70596,-42.36121 -5.19329,-56.48337 -5.74817,-8.25361 -13.59939,-13.24006 -19.125,-26.84375 -9.23072,-22.72541 -19.15018,-41.031379 -31.72636,-49.205262 -18.92255,-11.438195 -36.46685,-1.625341 -49.77359,4.798967 -39.6838,-13.588266 -62.09006,-9.14399 -77.53125,3.6875 -15.46706,12.852975 -23.93176,33.931895 -36.15625,53.374995 -15.75339,25.05584 -21.96778,43.9834 -19.4375,59.53125 1.9681,12.09343 3.75122,7.99557 12.88263,23.64272 3.59799,15.27819 5.54661,26.13241 42.69895,51.40859 5.62433,3.82645 17.47092,11.31198 15.27725,26.91204 11.00731,-9.19052 8.84656,23.6573 40.13225,23.07131 -10.39149,-2.65281 -17.46354,-4.66342 -24.50325,-5.52047 -1.75993,-0.21426 -3.5154,-0.35825 -5.3125,-0.40625 -5.3913,-0.14394 -11.14394,0.5143 -18.5,2.46875 l -0.0625,0.0312 -0.0312,0 c -21.73816,10.29031 -28.54394,30.09955 -30.875,51.34375 -2.33106,21.2442 -2.05936,44.75893 -5.97321,61.27679 l -13.78128,66.3887 c -27.67463,40.97842 -28.45047,46.78269 -51.00712,83.54586 -9.24013,15.0597 -26.63665,13.13632 -39.37856,21.59434 -16.620072,11.03234 -11.94628,10.38272 -23.060157,9.29325 l -15.655608,14.08182 c 15.81539,-3.30796 42.989615,-6.13453 24.203415,4.33955 -13.82955,7.71055 -13.251034,18.27949 -5.989128,12.44615 11.785718,-9.04762 25.000008,-7.73809 36.428578,-8.92856 15.35714,0 17.71971,-14.34698 34.07471,-6.7304 7.41724,5.22254 9.33848,-0.87236 12.82574,9.38255 2.03644,5.9885 4.5523,10.27497 7.91123,10.96615 -2.65866,-15.65487 0.51888,-14.11617 0.69245,-20.12264 -3.65683,-5.46642 2.96385,-15.7364 -9.72598,-24.18551 15.40681,-34.99805 71.68767,-53.0798 67.22951,-105.53046 5.71429,-10.35714 20.02538,-29.98949 23.95395,-44.63235"
                 id="path5263"
                 inkscape:connector-curvature="0"
                 sodipodi:nodetypes="ccssccscsccssscccccccccssccscssccccsccccscsccssccscccssscccscsccssscsccsscccsccssccscccsccccc" />
            </g>
          </g>
        </g>
      </g>
    </g>
  </g>
  <g
     style="display:inline"
     inkscape:label="girl and bkground"
     id="g3204"
     inkscape:groupmode="layer"
     sodipodi:insensitive="true">
    <g
       transform="translate(-3.4696457,0)"
       id="g3206">
      <path
         style="opacity:0.15;fill:#000000;stroke:none;display:inline"
         d="m 403.37946,255.30357 c 0,0 -0.7534,57.62656 1.46429,58.54018 -42.43403,-14.59626 -9.68714,-46.83293 -37.125,-16.0625 70.71068,32.32488 -72.75,79.78125 -72.75,79.78125 L 273.75,321 c 0,0 28.29061,-5.05313 24.25,-9.09375 -2.67687,-2.67687 -28.8955,-10.9856 -32.53125,5.875 -17.30246,80.23919 -82.66146,39.17413 -104.66726,27.43393 -22.75516,-12.13998 -92.939169,-42.37735 -121.921697,4.97642 -22.868123,37.36361 -13.734641,43.60127 -9.152475,68.41976 17.335521,47.43721 77.158292,79.63025 125.920822,94.34956 -10.93049,3.89631 -77.58645,-9.30853 -122.247982,36.80373 59.261716,-28.03007 79.265922,-17.20374 118.068582,-7.08665 20.43352,1.90721 116.07213,40.51197 289.71876,55.85325 -21.3929,10.43512 -45.38364,19.2737 -70.78125,27.0625 -12.6988,3.8944 -119.95354,25.70047 -81.53125,128.34375 13.69018,36.57265 -48.42878,120.30404 -61.9375,123.40625 -27.01746,6.20444 10.00245,-219.15077 -16.25,-213.46875 -13.12623,2.84101 8.26812,-35.75425 -4.21875,-32.84375 -12.48687,2.91049 -55.98888,7.32227 -78.96875,24.71875 -19.07595,14.4411 -46.899196,-1.29281 -64.46875,6.53125 -17.569554,7.82405 -20.349457,56.69968 -30,67.1875 -9.650544,10.48782 -14.748189,22.56843 -14.09375,36.78125 0.654438,14.21282 3.47981,33.67038 20.40625,49.5625 38.111683,35.78279 85.09841,56.9822 134.59375,68.6875 -143.268017,-8.9755 7.40017,38.87525 -44.78125,59.90625 -184.041358,79.60315 129.50846,12.4546 23.78125,62.43755 97.16885,43.2624 355.07294,-27.1384 449.0625,-44.2813 93.98956,-17.1428 -88.78125,21.42414 -88.78125,-35.71875 117.32473,-48.69511 -92.65746,32.89821 -173.4375,-107.75 C 333.443,698.03429 621.13975,765.18045 581.25,748.625 l -77.8125,-32.28125 78.8125,-52.8125 c 72.62299,-45.4432 123.92407,-126.03909 42.49107,-181.25446 -71.68006,-56.5878 -150.50298,-54.60417 -213.61161,-62.62054 84.08333,-31.68899 -8.97619,-104.80655 -7.75,-164.35268 z M 150.26285,379.77746 c 9.53213,2.90461 1.41277,4.11864 -1.50857,4.28633 -15.53416,-3.38788 -43.76047,-34.35948 -55.798382,-3.81314 11.298352,-30.90117 41.761872,-0.5656 57.306952,-0.47319 z m 1.31837,-15.56124 c 2.09417,0.21631 4.07995,4.80503 0.71875,4.03633 -14.81373,-3.38788 -52.2954,-31.32903 -59.9218,2.24777 10.80441,-34.14974 36.22719,-10.23716 59.20305,-6.2841 z m -60.036577,41.77039 c 34.188517,13.63032 22.083327,3.94048 34.553567,5.19643 -4.51162,11.10325 -19.90856,3.18313 -34.553567,-5.19643 z M 576.25,537.28125 c 0.86709,0.494 1.70639,1.01347 2.53125,1.53125 6.71246,3.467 22.49196,10.2983 19,25.46875 -1.29121,5.60955 -8.35548,8.06344 -16.625,11.8125 -16.53904,7.49811 -39.9172,14.63867 -50.8125,22.71875 -2.22173,2.11012 -3.90327,-0.95833 0.125,-3.3125 17.8858,-16.85781 61.02723,-19.08564 64.375,-35.25 1.3394,-6.46714 -5.5469,-14.83669 -16.0625,-21.4375 -1.1293,-0.58329 -2.05446,-1.11729 -2.53125,-1.53125 z m 32.125,10.6875 c 14.40952,17.62449 -3.31813,33.79484 -28.375,48.84375 -4.91694,4.36427 -4.59402,-1.7822 -1.6875,-4 10.65719,-9.9582 43.86269,-24.82669 30.0625,-44.84375 z m -119.21875,34.625 c 3.22121,-0.33063 -4.13766,26.54787 2.15625,32.15625 16.00691,14.26347 27.75021,54.66848 35,59.8125 0,0 -24.2868,34.34836 -45.5,12.125 -10.62379,-11.12968 -27.25,-60.625 -27.25,-60.625 7.50806,-4.13876 -3.96215,-26.56712 2.46875,-36.09375 6.4309,-9.52662 30.75267,-6.14727 32.78125,-7.25 0.12679,-0.0689 0.23984,-0.11433 0.34375,-0.125 z m -129.0625,101.3125 c 13.20499,-0.12098 75.64973,23.26371 109.78125,32.6875 -25.80061,-3.62385 -79.21272,-28.74392 -110.125,-31.53125 -0.6877,-0.0919 -2.18768,-0.37117 -1.625,-0.78125 0.41972,-0.228 1.08842,-0.36693 1.96875,-0.375 z m -14.96875,10.875 c 0.4869,-0.0178 1.02221,-0.012 1.59375,0 16.00311,0.33529 64.01892,12.01697 95.875,20.8125 -34.89199,-7.66446 -68.08772,-16.61892 -99,-19.40625 -0.6877,-0.0919 -2.18768,-0.40242 -1.625,-0.8125 0.62958,-0.342 1.69556,-0.54037 3.15625,-0.59375 z m 20.84375,16.59375 c 20.14428,-0.0272 58.16354,3.96097 85.46875,11.5 -34.89199,-7.66446 -66.05647,-6.52517 -96.96875,-9.3125 -0.6877,-0.0919 -2.18768,-0.40242 -1.625,-0.8125 1.67887,-0.91199 6.41024,-1.36595 13.125,-1.375 z M 89.5,715.78125 c -0.428096,0.51045 -1.222214,1.08597 -2.1875,1.78125 0.714118,-0.60732 1.442433,-1.19829 2.1875,-1.78125 z m -2.3125,1.90625 c -10.636473,9.09299 -17.661012,20.71422 -16.3125,29.65625 3.34777,22.19917 46.52045,25.22349 64.40625,48.375 4.02827,3.23308 2.34673,7.46041 0.125,4.5625 -10.8953,-11.0967 -34.27346,-20.92129 -50.8125,-31.21875 -8.26952,-5.14874 -15.36504,-8.51493 -16.65625,-16.21875 -3.529831,-21.06017 12.668367,-30.44492 19.25,-35.15625 z m -29.8125,12.75 c -13.80019,27.49024 19.37406,47.91775 30.03125,61.59375 2.90652,3.04579 3.22944,11.49363 -1.6875,5.5 C 60.66188,776.86397 42.96548,754.64193 57.375,730.4375 z m 141.28125,159.09375 c 23.60929,4.09626 47.53981,6.28079 71.125,7.0625 -19.55141,24.12705 14.81487,78.6724 -26.0625,50.4375 -20.09008,34.36041 -37.55362,18.12639 -45.0625,-57.5 z M 323.125,952.25 c 52.35766,1.93925 137.14583,13.09375 182.9375,11.75 0.0986,3.16122 -141.57883,-0.51125 -182.1875,-3.25 -6.40955,0.20743 -3.19563,-8.60468 -0.75,-8.5 z M 289.5625,971 c 31.22045,-0.0505 62.11021,5.19079 112.8125,2.5 l -115.78125,7.03125 c 1.51638,-3.30952 -11.50745,-7.91369 -3.5625,-9.4375 2.18966,-0.0596 4.35188,-0.0902 6.53125,-0.0937 z"
         id="path3208"
         inkscape:connector-curvature="0"
         sodipodi:nodetypes="cccccsssscccccsssssssssscccscccccccccccccscccccccssccscccccccscscsccscccsccccccscccsccccsccssccccccccccccccccccc" />
      <g
         id="g3210">
        <g
           id="g3212" />
      </g>
      <g
         id="g3214"
         transform="translate(-12.857142,-7.142857)" />
      <g
         transform="matrix(-1,0,0,1.3733405,665.7312,-22.100164)"
         style="display:inline"
         id="g3216">
        <g
           id="g3218" />
      </g>
      <g
         transform="translate(-0.10939867,0.43557578)"
         style="display:inline"
         id="g3220">
        <g
           id="g3222">
          <path
             id="path3224"
             style="fill:none;stroke:#000000;stroke-width:1px;stroke-linecap:butt;stroke-linejoin:miter;stroke-opacity:1"
             d="m 226.27417,706.1324 c 14.14214,11.61675 29.69181,3.67743 33.84011,-0.25254 2.25364,-2.13502 4.71405,-4.04061 7.07107,-6.06092"
             inkscape:connector-curvature="0"
             sodipodi:nodetypes="csc" />
          <path
             style="fill:none;stroke:#000000;stroke-width:1px;stroke-linecap:butt;stroke-linejoin:miter;stroke-opacity:1"
             d="m 296.47977,665.97884 c 26.66256,-29.73388 -12.05125,-39.61567 -1.2132,-61.98697"
             id="path3226"
             inkscape:connector-curvature="0"
             sodipodi:nodetypes="cc" />
          <path
             style="fill:none;stroke:#000000;stroke-width:1px;stroke-linecap:butt;stroke-linejoin:miter;stroke-opacity:1"
             d="m 375.88245,601.39015 c 8.08434,11.93107 13.13536,27.37042 -8.08148,42.57112"
             id="path3228"
             inkscape:connector-curvature="0"
             sodipodi:nodetypes="cc" />
          <path
             style="fill:none;stroke:#000000;stroke-width:1px;stroke-linecap:butt;stroke-linejoin:miter;stroke-opacity:1"
             d="m 255.31606,630.87604 c 34.17683,16.75169 13.80542,43.85745 24.4962,48.73985"
             id="path3231"
             inkscape:connector-curvature="0"
             sodipodi:nodetypes="cc" />
          <path
             style="fill:none;stroke:#000000;stroke-width:1px;stroke-linecap:butt;stroke-linejoin:miter;stroke-opacity:1"
             d="m 237.89092,652.84685 c -0.97734,9.80318 2.08942,18.30955 10.19299,26.99883 16.27756,17.45406 17.42033,9.51707 24.65728,18.96311"
             id="path3233"
             inkscape:connector-curvature="0"
             sodipodi:nodetypes="csc" />
          <path
             style="fill:none;stroke:#000000;stroke-width:1px;stroke-linecap:butt;stroke-linejoin:miter;stroke-opacity:1"
             d="m 234.35539,754.87226 c 28.28427,-20.70812 39.90103,-50.50763 39.90103,-50.50763"
             id="path3235"
             inkscape:connector-curvature="0"
             sodipodi:nodetypes="cc" />
          <path
             style="fill:none;stroke:#000000;stroke-width:1px;stroke-linecap:butt;stroke-linejoin:miter;stroke-opacity:1"
             d="m 276.7818,697.79864 c -2.52538,-11.28004 20.86693,-25.79055 36.87057,-37.37565 19.51368,-14.12603 55.22167,-7.7445 83.33758,-40.4061"
             id="path3237"
             inkscape:connector-curvature="0"
             sodipodi:nodetypes="csc" />
          <path
             style="fill:none;stroke:#000000;stroke-width:1px;stroke-linecap:butt;stroke-linejoin:miter;stroke-opacity:1"
             d="m 239.91123,776.08546 c 36.87057,-34.34518 40.4061,-54.04316 40.4061,-54.04316"
             id="path3239"
             inkscape:connector-curvature="0"
             sodipodi:nodetypes="cc" />
          <path
             style="fill:none;stroke:#000000;stroke-width:1px;stroke-linecap:butt;stroke-linejoin:miter;stroke-opacity:1"
             d="m 239.40615,805.37989 c 12.79527,-16.3308 29.12607,-28.62099 38.3858,-48.9924"
             id="path3241"
             inkscape:connector-curvature="0"
             sodipodi:nodetypes="cc" />
          <path
             style="fill:none;stroke:#000000;stroke-width:1px;stroke-linecap:butt;stroke-linejoin:miter;stroke-opacity:1"
             d="m 228.79955,728.60829 c 7.07107,44.44671 39.90103,65.65992 39.90103,65.65992"
             id="path3243"
             inkscape:connector-curvature="0"
             sodipodi:nodetypes="cc" />
          <path
             style="fill:none;stroke:#000000;stroke-width:1px;stroke-linecap:butt;stroke-linejoin:miter;stroke-opacity:1"
             d="m 227.28432,712.44585 c 11.11168,30.13622 33.84011,51.68614 51.51778,66.16499"
             id="path3245"
             inkscape:connector-curvature="0"
             sodipodi:nodetypes="cc" />
          <path
             style="fill:none;stroke:#000000;stroke-width:1px;stroke-linecap:butt;stroke-linejoin:miter;stroke-opacity:1"
             d="m 389.40075,593.67933 c -20.03067,33.21181 -52.89059,47.41543 -73.37495,46.97457 -23.07142,-0.49653 -38.22711,11.39396 -50.16628,16.2967 -17.7457,7.28716 -33.6928,1.03119 -38.32266,22.16022 -0.92597,27.44247 19.10872,28.62098 56.82108,71.21575"
             id="path3247"
             inkscape:connector-curvature="0"
             sodipodi:nodetypes="csscc" />
          <path
             style="fill:none;stroke:#000000;stroke-width:1px;stroke-linecap:butt;stroke-linejoin:miter;stroke-opacity:1"
             d="m 234.91051,655.07553 c 39.15064,-54.49075 72.94414,-11.83865 121.02335,-55.25798"
             id="path3249"
             inkscape:connector-curvature="0"
             sodipodi:nodetypes="cc"
             inkscape:transform-center-x="-17.142857" />
          <path
             style="fill:none;stroke:#000000;stroke-width:1px;stroke-linecap:butt;stroke-linejoin:miter;stroke-opacity:1"
             d="m 329.79994,653.27646 c 17.08841,-5.80838 19.32784,-30.06935 7.26668,-40.3838 -8.48972,-20.31446 8.00568,-15.25382 -9.25108,-28.13327"
             id="path3251"
             inkscape:connector-curvature="0"
             sodipodi:nodetypes="ccc" />
          <path
             style="fill:none;stroke:#000000;stroke-width:1px;stroke-linecap:butt;stroke-linejoin:miter;stroke-opacity:1"
             d="m 251.52799,823.56263 c -7.57615,6.06092 -16.66752,5.55584 -16.66752,5.55584 7.57614,12.96362 15.65736,13.30034 21.2132,13.13198 -12.45855,8.41794 -24.9171,25.42218 -41.41625,27.7792 9.93316,17.67767 29.96785,24.74874 31.06218,27.27412 l -19.44543,14.6472"
             id="path3253"
             inkscape:connector-curvature="0"
             sodipodi:nodetypes="cccccc" />
          <path
             style="fill:none;stroke:#000000;stroke-width:1px;stroke-linecap:butt;stroke-linejoin:miter;stroke-opacity:1"
             d="m 224.25387,848.81644 c 16.66751,27.27412 29.29441,25.25381 29.29441,25.25381 -12.6269,8.75466 -26.26396,15.48901 -34.85025,26.26397"
             id="path3255"
             inkscape:connector-curvature="0"
             sodipodi:nodetypes="ccc" />
        </g>
      </g>
      <path
         style="fill:none;stroke:#000000;stroke-width:1px;stroke-linecap:butt;stroke-linejoin:miter;stroke-opacity:1;display:inline"
         d="m 217.85714,754.50504 c -5,0 -10.71428,20 -10.71428,20"
         id="path3257"
         inkscape:connector-curvature="0" />
      <path
         style="fill:none;stroke:#000000;stroke-width:1px;stroke-linecap:butt;stroke-linejoin:miter;stroke-opacity:1;display:inline"
         d="m 206.34191,745.96951 c 9.29067,18.74269 14.79327,23.0907 20.29587,31.22679"
         id="path3259"
         inkscape:connector-curvature="0"
         sodipodi:nodetypes="cc" />
      <path
         style="fill:none;stroke:#000000;stroke-width:1px;stroke-linecap:butt;stroke-linejoin:miter;stroke-opacity:1;display:inline"
         d="m 207.85714,778.07647 c 6.19048,7.38095 8.34034,18.80252 18.57143,22.14286"
         id="path3261"
         inkscape:connector-curvature="0"
         sodipodi:nodetypes="cc" />
      <path
         style="fill:none;stroke:#000000;stroke-width:1px;stroke-linecap:butt;stroke-linejoin:miter;stroke-opacity:1;display:inline"
         d="m 224.28571,780.21933 c 2.22952,27.72843 -0.53571,30.71428 -0.53571,30.71428"
         id="path3263"
         inkscape:connector-curvature="0"
         sodipodi:nodetypes="cc" />
      <path
         style="fill:none;stroke:#000000;stroke-width:1px;stroke-linecap:butt;stroke-linejoin:miter;stroke-opacity:1;display:inline"
         d="m 256.42857,616.6479 c -14.28571,3.80952 -27.14285,10.47619 -34.28571,21.42857"
         id="path3265"
         inkscape:connector-curvature="0"
         sodipodi:nodetypes="cc" />
      <path
         style="fill:none;stroke:#000000;stroke-width:1px;stroke-linecap:butt;stroke-linejoin:miter;stroke-opacity:1;display:inline"
         d="m 281.42858,587.71933 c -13.80953,12.97619 -36.19049,4.5238 -47.32144,13.57142 -5.41666,16.42858 -2.79762,33.92857 -1.25,41.07143"
         id="path3267"
         inkscape:connector-curvature="0"
         sodipodi:nodetypes="ccc" />
      <path
         style="fill:none;stroke:#000000;stroke-width:1px;stroke-linecap:butt;stroke-linejoin:miter;stroke-opacity:1;display:inline"
         d="m 214.64285,657.36218 c -2.73809,15 0.2381,17.85714 2.50001,22.5"
         id="path3269"
         inkscape:connector-curvature="0"
         sodipodi:nodetypes="cc" />
      <path
         style="fill:none;stroke:#000000;stroke-width:1px;stroke-linecap:butt;stroke-linejoin:miter;stroke-opacity:1;display:inline"
         d="m 207.64794,711.51791 c 7.69126,21.16945 13.86729,28.4493 19.28571,32.44616"
         id="path3271"
         inkscape:connector-curvature="0"
         sodipodi:nodetypes="cc" />
      <path
         style="fill:none;stroke:#000000;stroke-width:1px;stroke-linecap:butt;stroke-linejoin:miter;stroke-opacity:1;display:inline"
         d="m 213.39286,718.07647 4.46428,-5.71429"
         id="path3273"
         inkscape:connector-curvature="0"
         sodipodi:nodetypes="cc" />
      <path
         style="fill:none;stroke:#000000;stroke-width:1px;stroke-linecap:butt;stroke-linejoin:miter;stroke-opacity:1;display:inline"
         d="m 227.48927,768.72288 c -4.22093,10.75018 -11.76818,19.91642 -13.46373,27.88868"
         id="path3275"
         inkscape:connector-curvature="0"
         sodipodi:nodetypes="cc" />
      <path
         style="fill:none;stroke:#000000;stroke-width:1px;stroke-linecap:butt;stroke-linejoin:miter;stroke-opacity:1;display:inline"
         d="m 244.28571,581.6479 c 25.35715,3.92857 25,24.28571 25,24.28571"
         id="path3277"
         inkscape:connector-curvature="0"
         sodipodi:nodetypes="cc" />
      <g
         style="display:inline"
         id="g3279"
         transform="translate(-65.714285,46.428571)">
        <path
           sodipodi:nodetypes="ccccc"
           inkscape:connector-curvature="0"
           id="path3281"
           d="m 327.33444,569.27743 c 11.50221,-12.80078 21.80563,-20.90675 43.16432,-35.4542 l -0.5625,-0.8125 c -21.40444,14.57862 -32.14669,22.72009 -44.46806,35.44753 z"
           style="font-size:medium;font-style:normal;font-variant:normal;font-weight:normal;font-stretch:normal;text-indent:0;text-align:start;text-decoration:none;line-height:normal;letter-spacing:normal;word-spacing:normal;text-transform:none;direction:ltr;block-progression:tb;writing-mode:lr-tb;text-anchor:start;baseline-shift:baseline;color:#000000;fill:#ffffff;fill-opacity:1;stroke:none;stroke-width:1px;marker:none;visibility:visible;display:inline;overflow:visible;enable-background:accumulate;font-family:Sans;-inkscape-font-specification:Sans" />
        <path
           style="fill:none;stroke:#ffffff;stroke-width:1px;stroke-linecap:butt;stroke-linejoin:miter;stroke-opacity:1"
           d="m 396.8693,327.54255 c -8.45238,2.85714 -46.90476,14.64286 -37.14286,29.64286 -6.90476,-12.85714 -22.02381,3.92857 -31.42857,-41.78571 l 2.5,-3.21429"
           id="path3283"
           inkscape:connector-curvature="0"
           sodipodi:nodetypes="cccc" />
        <path
           style="fill:none;stroke:#ffffff;stroke-width:1px;stroke-linecap:butt;stroke-linejoin:miter;stroke-opacity:1"
           d="m 326.15501,336.82827 c 10,13.33333 26.42857,12.38095 36.42857,27.14286"
           id="path3285"
           inkscape:connector-curvature="0"
           sodipodi:nodetypes="cc" />
        <path
           style="fill:none;stroke:#ffffff;stroke-width:1px;stroke-linecap:butt;stroke-linejoin:miter;stroke-opacity:1"
           d="m 354.01215,355.3997 c 8.92857,-15.59524 66.42858,-12.61905 94.28572,-66.42857 7.41419,65.37637 22.04408,42.57807 26.81545,65.35279 4.00947,19.13799 -8.12205,31.36304 -16.90763,35.58679 -86.8489,25.47104 -86.33639,-14.15387 -95.62211,-7.7253"
           id="path3287"
           inkscape:connector-curvature="0"
           sodipodi:nodetypes="ccscc" />
        <path
           style="font-size:medium;font-style:normal;font-variant:normal;font-weight:normal;font-stretch:normal;text-indent:0;text-align:start;text-decoration:none;line-height:normal;letter-spacing:normal;word-spacing:normal;text-transform:none;direction:ltr;block-progression:tb;writing-mode:lr-tb;text-anchor:start;baseline-shift:baseline;color:#000000;fill:#000000;fill-opacity:1;stroke:none;stroke-width:1px;marker:none;visibility:visible;display:inline;overflow:visible;enable-background:accumulate;font-family:Sans;-inkscape-font-specification:Sans"
           d="m 403.5625,321.5625 c -2.10777,4.61988 -19.34288,15.46687 -24.625,17.03125 -10.73011,3.17789 -31.44097,18.5383 -42.3125,37.9375 -8.23966,-7.07988 -3.2657,-12.27594 -8,-24.1875 -0.59251,-1.23959 3.85505,-11.1931 -1.84375,-4.71875 -1.20675,1.37098 -3.24041,-2.33558 -5.71875,-3.46875 -1.87838,-0.31417 0.32096,-2.56108 0.875,-7.46875 0.0912,-0.80802 0.0868,-1.40188 0,-1.9375 l -2.125,0.0937 c 0.85449,3.37379 2.15397,5.43508 -0.9375,9.5 -1.43105,0.28411 -3.02661,2.78401 -3.84375,1.71875 -6.36056,-8.29189 -2.30793,-1.02901 -3.53125,0.75 -1.32704,1.92984 -3.5967,4.0941 -5.09375,5.53125 -8.62309,8.45335 -9.31953,20.81952 -19.53125,29.625 -8.78339,-21.23984 -2.12058,-35.19949 -13.625,-49.65625 -7.19885,0.20823 -13.88377,1.37834 -19.9375,3.875 -17.96546,7.40926 -21.54391,19.76958 -28.8125,46.875 -2.31552,21.10261 0.85419,43.86265 -3.125,60.65625 l -17.5,67.21875 c -21.71591,32.47922 -23.36033,37.23301 -34.34375,56.125 14.16277,8.5557 30.41885,2.20997 31.65625,9.4375 -6.29234,1.85242 -12.95564,13.97632 -17.3125,22.5 l 0.8125,0.4375 c 1.24275,-1.42108 2.60984,-2.87028 4.0625,-4.34375 l 12.625,-16.34375 0.8125,3.5625 c 18.96714,-17.6807 41.22241,-40.01954 38.5,-72.78125 l -0.0312,-0.25 0.1875,-0.15625 C 255.68219,494.70746 260.33105,478.16382 263,466.65625 l 1.8125,-12.8125 c 18.41867,28.96023 15.26085,52.14607 11.375,71.40625 -0.53857,6.09692 -3.29857,8.0523 -6.90625,10.75 -2.97485,3.0913 -6.63827,11.02871 -11.125,15.28125 -8.97113,8.50286 -16.73891,16.53574 -26.5,41.21875 -2.82453,7.79906 -10.59375,28.53125 -10.59375,28.53125 l -0.34375,0.90625 c 0,0 15.66858,-6.57698 21.6875,-11.25 l 5.875,-4.625 8.8125,8.625 c 0,0 20.92267,3.38241 31.125,1.4375 10.22227,-1.94871 10.12521,-1.29654 22.59375,-7.8125 7.0652,-3.69223 14.82583,10.0403 22.46875,16.25 8.71135,7.07778 21.62594,3.82733 28.15625,7.59375 22.49874,12.9764 44.5222,20.32319 68.3125,12.8125 -5.24773,-6.20734 -16.90889,-21.14225 -18.03125,-25.71875 -3.66549,-21.43891 0.32394,-42.81668 -10.8125,-73.96875 -22.54933,-36.29714 -28.12325,-56.32754 -25.4375,-72.75 3.64489,-22.28725 9.6365,-32.06477 15.71875,-39.96875 3.68102,1.16987 19.42336,-22.3661 18.9375,-17.21875 l 2.5,7.125 c 4.75111,33.85157 31.28125,86.40625 31.28125,86.40625 0,0 0.8925,40.97974 3.78125,75.375 11.33659,-1.84445 24.83551,-2.67145 36.6875,-2.71875 1.44212,1.60885 -3.71377,16.21137 -0.96875,18.1875 0.10714,-0.008 0.21007,-0.0363 0.3125,-0.0625 5.76673,-25.45585 16.3065,-52.17016 2.125,-95.625 -2.47155,-15.58966 -3.93255,-8.02051 -5.125,-5.59375 -0.76079,-9.18803 -1.04852,-13.78257 -3.78125,-21.125 -2.92027,-7.84632 1.24583,-30.20806 -2.71875,-47.375 C 468.75731,402.83639 462.35292,385.69091 456.875,368 c -10.89435,-35.18323 -19.41628,-42.5337 -39.96875,-45.28125 -4.82465,-0.64498 -9.26362,-1.01201 -13.34375,-1.15625 z m -152.03125,47.90625 0.875,0.5 c -0.0145,0.0346 -0.0479,0.0591 -0.0625,0.0937 -4.18481,9.92683 -10.93686,18.3519 -15.84375,27.71875 0.0824,4.9194 0.59484,11.4955 2.28125,18.03125 1.66694,6.46028 4.5115,12.83324 9.1875,17.5 4.676,4.66676 11.17617,7.65415 20.40625,7.3125 12.58652,-0.46589 23.65625,-8.46875 23.65625,-8.46875 1.89667,2.11279 -18.08577,9.67331 -26.30357,9.29018 -8.91975,-1.60734 -14.33602,-3.81882 -19.19197,-8.66518 -4.85595,-4.84636 -6.58157,-10.1489 -8.27678,-16.71875 -1.5799,-6.12294 -2.13552,-13.06613 -2.28125,-17.5 -0.49924,1.06708 -1.4209,3.41349 -1.72768,4.5 -0.47748,1.69106 -0.49957,3.25545 0.59375,4.65625 l 0.125,0.15625 -0.0312,0.21875 c -0.71141,4.63095 -0.54013,9.4613 1.09375,13.84375 0.003,0.009 -0.004,0.0222 0,0.0312 3.40952,8.52392 10.53487,14.92833 17.625,20.65625 l 0.0312,0.0312 c 1.71804,1.47517 3.85187,2.78662 5.71875,4.40625 1.86688,1.61963 3.46372,3.58339 3.9375,6.25 l -0.96875,0.15625 c -0.42125,-2.37096 -0.96761,-4.07867 -2.75,-5.625 -1.78239,-1.54633 -3.13391,-2.26387 -4.9375,-3.8125 -8.51475,-5.883 -16.44968,-14.5533 -19.96875,-23.375 -1.71277,-4.57446 -0.74515,-7.52848 -0.78125,-12.65625 -0.97521,-1.44031 -1.05475,-3.03429 -0.71875,-4.59375 -0.0231,0.0763 -0.0709,0.14225 -0.0937,0.21875 -2.37605,7.72192 -1.28557,16.4001 3.1875,23.15625 4.86602,7.52173 11.00832,14.1724 17.96875,19.8125 l 0.0312,0.0312 c 3.72112,3.29607 6.38612,7.488 8.90625,11.625 l -0.84375,0.5 c -2.51281,-4.12498 -4.26053,-8.20107 -7.84375,-11.375 -7.03573,-5.70112 -13.5091,-12.41308 -18.4375,-20.03125 -4.76424,-6.40068 -5.46865,-14.07092 -3.9375,-24 0.90327,-3.02287 2.06723,-5.94543 3.375,-8.78125 0.0441,-1.24043 0.3634,-3.8273 0.40879,-4.42211 -8.11444,13.39149 -7.07564,20.21051 -6.00889,26.11659 1.35941,7.52636 5.67216,13.66 9.84629,18.80933 4.17413,5.14933 8.11098,8.4441 10.08995,10.74492 0.49474,0.5752 0.84653,1.0332 1.03125,1.5 0.0924,0.2334 0.65144,0.8713 0.26273,1.13647 -0.45932,0.31333 -1.0953,0.18397 -1.87566,0.16391 -0.813,-0.081 -1.85399,-0.25506 -3.21875,-0.5625 l 0.30804,-0.64286 c 1.34358,0.30267 2.35268,0.4887 3.09375,0.5625 0.72343,0.0721 1.1774,0.0143 1.28125,-0.0312 -0.001,-0.006 0.007,-0.0273 -0.0312,-0.125 -0.0958,-0.24197 -0.40899,-0.67695 -0.875,-1.21875 -1.86403,-2.16719 -6.2039,-6.05855 -10.4375,-11.28125 -4.2336,-5.2227 -8.39114,-11.8083 -9.84375,-19.5625 -1.45261,-7.7542 -0.17917,-16.66814 6.28125,-26.34375 l 0.9062,0.3439 c 0,0 -0.0836,0.97944 -0.15625,2.59375 4.06301,-8.12616 9.4596,-15.58077 14.875,-22.78125 0.0224,-0.0298 0.0401,-0.0639 0.0625,-0.0937 z m -2.59375,5.1875 c -4.7579,6.50282 -9.13078,13.28474 -12.4375,20.5625 -0.002,0.13656 9.6e-4,0.29681 0,0.4375 3.93779,-7.17849 8.68386,-13.8319 12.4375,-21 z m 53.65625,49.375 c 0.11501,0.0104 0.20979,0.0519 0.3125,0.0937 0.70757,0.027 1.37294,0.2759 2,0.59375 5.7191,3.35703 8.64419,9.90571 14.25,13.40625 6.51446,2.28782 13.39451,3.71288 20.28125,4.28125 11.32881,1.04348 22.36766,-2.4052 33.625,-2.84375 -4.92568,1.12908 -9.87112,2.22302 -14.8125,3.28125 -6.1164,1.13737 -12.20729,3.09747 -18.5,2.5 -6.93787,-0.57639 -13.63476,-2.74814 -20.21875,-4.875 -5.40217,-2.76165 -7.7518,-8.8254 -12.125,-12.75 -1.7641,-1.68736 -4.29687,-3.39916 -6.75,-1.90625 -2.60375,1.46196 -0.1838,-1.45384 1.5625,-1.75 0.12473,-0.0211 0.25999,-0.0417 0.375,-0.0312 z m -1.3125,152.5625 0.5625,0.8125 c -21.35869,14.54745 -31.68529,22.66797 -43.1875,35.46875 l -1.84375,-0.8125 c 12.32137,-12.72744 23.06431,-20.89013 44.46875,-35.46875 z"
           transform="translate(69.183931,-46.428571)"
           id="path3289"
           inkscape:connector-curvature="0"
           sodipodi:nodetypes="csccscccccsscccscccccccccccccccccsccccccsssscccsccccccccccscsscccccsssccsscscccccccsccscccccccccccccccssscsccccccssscccccccccccccccccccccccccccc" />
        <path
           id="path3295"
           d="m 509.50405,433.54984 c 8.33757,24.09871 17.77708,17.46324 11.331,38.76661"
           style="fill:none;stroke:#ffffff;stroke-width:1px;stroke-linecap:butt;stroke-linejoin:miter;stroke-opacity:1;display:inline"
           inkscape:connector-curvature="0" />
        <path
           sodipodi:nodetypes="cc"
           inkscape:connector-curvature="0"
           id="path3297"
           d="m 467.40476,550.17279 c 7.0203,17.7445 -7.38796,24.06043 7.48949,36.09065"
           style="fill:none;stroke:#ffffff;stroke-width:1px;stroke-linecap:butt;stroke-linejoin:miter;stroke-opacity:1" />
      </g>
      <g
         id="g3299"
         style="fill:none;display:inline">
        <g
           id="g3301"
           style="fill:none">
          <g
             id="g3303"
             style="fill:none;display:inline"
             transform="translate(0.16917052,-1.9626865)">
            <path
               style="fill:none;stroke:#000000;stroke-width:1px;stroke-linecap:butt;stroke-linejoin:miter;stroke-opacity:1"
               d="m 184.85206,607.21425 c 14.7619,-15 16.68462,-16.92314 23.23224,-22.63742 l -1.34191,-5.73223 z"
               id="path3305"
               inkscape:connector-curvature="0"
               sodipodi:nodetypes="cccc" />
            <path
               style="fill:none;stroke:#000000;stroke-width:1px;stroke-linecap:butt;stroke-linejoin:miter;stroke-opacity:1"
               d="m 158.72022,591.10128 c 0.50508,-0.63134 14.01587,-25.38008 14.01587,-25.38008 14.61801,10.6999 32.53878,3.25824 33.8401,10.85914 -9.00719,2.65165 -18.89827,26.5165 -21.46574,30.43084 -8.83883,-5.38748 -13.00571,-13.80542 -26.39023,-15.9099 z"
               id="path3307"
               inkscape:connector-curvature="0"
               sodipodi:nodetypes="ccccc" />
          </g>
          <path
             sodipodi:nodetypes="cccscccc"
             inkscape:connector-curvature="0"
             id="path3309"
             d="m 448.49631,583.23734 7.14286,35.71428 29.82143,-3.92857 c 0,0 2.69652,1.65945 3.4108,-2.62627 0.71429,-4.28571 7.12491,-29.51659 7.12491,-29.51659 -2.27985,-1.42528 -2.60811,14.63585 -7.03453,14.97834 -2.74502,-1.97613 2.40523,-16.58377 0.96311,-18.19262 -13.55699,0.0541 -29.26055,1.11826 -41.42858,3.57143 z"
             style="fill:none;stroke:#000000;stroke-width:1px;stroke-linecap:butt;stroke-linejoin:miter;stroke-opacity:1;display:inline" />
          <path
             sodipodi:nodetypes="cccccssccc"
             inkscape:connector-curvature="0"
             id="path3311"
             d="m 305.39782,310.45591 c -4.8859,1.58992 -2.9861,14.60841 -11.44343,17.6269 l -17.17259,1e-5 c 14.31049,15.32064 6.39763,29.63114 15.65736,52.02285 10.21172,-8.80548 10.90545,-21.18767 19.52854,-29.64102 1.49705,-1.43715 3.75519,-3.6083 5.08223,-5.53814 1.22332,-1.77901 -2.82519,-9.03941 3.53537,-0.74752 0.81714,1.06526 2.41593,-1.43534 3.84698,-1.71945 5.99345,-7.88068 -4.48937,-8.18458 3.68346,-25.25381 -17.84603,6.56599 -11.43788,-2.20413 -22.71792,-6.74982 z"
             style="fill:none;stroke:#000000;stroke-width:1px;stroke-linecap:butt;stroke-linejoin:miter;stroke-opacity:1" />
          <path
             sodipodi:nodetypes="csccsssccsc"
             inkscape:connector-curvature="0"
             id="path3313"
             d="m 326.60581,342.28623 c 2.47834,1.13317 4.52551,4.84465 5.73226,3.47367 5.6988,-6.47435 1.24381,3.45758 1.83632,4.69717 4.7343,11.91156 -0.23227,17.11441 8.00739,24.19429 10.87153,-19.3992 31.57376,-34.75976 42.30387,-37.93765 7.06033,-2.09103 35.50142,-20.73409 20.58557,-18.97753 -12.86661,1.51523 -22.74914,-2.94701 -25.25382,-10.86657 -1.93184,-6.10828 -5.29586,-12.05004 -5.29586,-12.05004 8.61928,7.63306 -24.41843,18.08866 -47.26797,21.9962 -2.57716,15.25827 0.77516,13.27618 0.24137,18.0045 -0.55404,4.90767 -2.76751,7.15179 -0.88913,7.46596 z"
             style="fill:none;stroke:#000000;stroke-width:1px;stroke-linecap:butt;stroke-linejoin:miter;stroke-opacity:1" />
        </g>
      </g>
      <path
         sodipodi:nodetypes="csssccssccc"
         inkscape:connector-curvature="0"
         id="path3315"
         d="m 374.48661,296.08036 c 0,0 -1.24297,0.15814 -6.04253,4.82906 -8.03993,7.82442 -20.23857,10.08914 -29.39586,12.1691 -13.771,3.1279 -20.82067,6.4842 -23.57106,4.17909 -10.65846,-8.93283 -8.30685,-5.07296 -9.93417,-7.72811 l 4.20701,3.81425 c 1.76554,2.88062 5.09002,6.91459 8.86161,7.01339 1.8858,0.0494 5.73366,-3.08023 8.19763,-1.91569 3.04635,1.43979 1.76639,-1.02576 7.59701,-1.77627 18.54117,-6.1766 27.48332,-7.31838 38.90757,-13.6096 2.63839,-4.06994 3.53439,-3.97671 1.17279,-6.97522 z"
         style="font-size:medium;font-style:normal;font-variant:normal;font-weight:normal;font-stretch:normal;text-indent:0;text-align:start;text-decoration:none;line-height:normal;letter-spacing:normal;word-spacing:normal;text-transform:none;direction:ltr;block-progression:tb;writing-mode:lr-tb;text-anchor:start;baseline-shift:baseline;color:#000000;fill:#000000;fill-opacity:1;stroke:none;stroke-width:1px;marker:none;visibility:visible;display:inline;overflow:visible;enable-background:accumulate;font-family:Sans;-inkscape-font-specification:Sans" />
      <g
         style="display:inline"
         id="g3317">
        <path
           sodipodi:nodetypes="cscsccccc"
           inkscape:connector-curvature="0"
           id="path3319"
           d="m 319.898,325.98898 c 0.003,11.44368 -2.14567,8.03577 -5.05237,12.07624 -5.98019,8.31277 -5.22402,7.98842 -9.16828,18.53868 2.83494,-5.10304 7.11299,-10.54713 9.67101,-14.9481 2.36183,-4.06344 4.82456,-4.90166 5.77932,-10.11789 1.24335,1.41151 -4.89709,10.18252 2.63541,10.2077 -6.12741,-0.26395 1.73876,-7.87616 -2.04434,-16.18311 l -0.92108,-0.2206 z"
           style="font-size:medium;font-style:normal;font-variant:normal;font-weight:normal;font-stretch:normal;text-indent:0;text-align:start;text-decoration:none;line-height:normal;letter-spacing:normal;word-spacing:normal;text-transform:none;direction:ltr;block-progression:tb;writing-mode:lr-tb;text-anchor:start;baseline-shift:baseline;color:#000000;fill:#000000;fill-opacity:1;stroke:none;stroke-width:1px;marker:none;visibility:visible;display:inline;overflow:visible;enable-background:accumulate;font-family:Sans;-inkscape-font-specification:Sans" />
        <path
           sodipodi:nodetypes="cccccscc"
           inkscape:connector-curvature="0"
           id="path3321"
           d="m 330.21875,325.28125 c -3.31994,2.11756 0.59226,13.52083 -2.37054,15.54911 3.07887,-4.7872 1.87202,-7.52084 1.37947,-10.7009 6.0651,9.25391 7.00065,9.91608 7.53125,13.58483 0.21465,4.32187 0.17224,7.66806 0.0446,11.79017 0.68147,-2.25216 2.95014,-7.49574 2.38393,-11.41071 -0.56621,-3.91497 -2.86561,-9.50054 -8.96875,-18.8125 z"
           style="font-size:medium;font-style:normal;font-variant:normal;font-weight:normal;font-stretch:normal;text-indent:0;text-align:start;text-decoration:none;line-height:normal;letter-spacing:normal;word-spacing:normal;text-transform:none;direction:ltr;block-progression:tb;writing-mode:lr-tb;text-anchor:start;baseline-shift:baseline;color:#000000;fill:#000000;fill-opacity:1;stroke:none;stroke-width:1px;marker:none;visibility:visible;display:inline;overflow:visible;enable-background:accumulate;font-family:Sans;-inkscape-font-specification:Sans" />
      </g>
      <g
         style="display:inline"
         inkscape:transform-center-y="-287.51583"
         inkscape:transform-center-x="-83.067323"
         id="g3323"
         transform="translate(0.71428159,2.1428571)">
        <g
           transform="translate(1.3689738e-6,0)"
           id="g3325">
          <g
             style="display:inline"
             id="g3327"
             transform="translate(0.40447114,-0.49719184)">
            <g
               id="g3329"
               transform="translate(-0.41841878,-0.17331453)">
              <g
                 id="g3331">
                <path
                   style="fill:none;stroke:#000000;stroke-width:1px;stroke-linecap:butt;stroke-linejoin:miter;stroke-opacity:1"
                   d="m 309.10668,115.95077 c -20.70813,19.69798 -55.05331,47.98225 -77.27667,81.82236"
                   id="path3333"
                   inkscape:connector-curvature="0"
                   sodipodi:nodetypes="cc" />
                <path
                   style="fill:none;stroke:#000000;stroke-width:1px;stroke-linecap:butt;stroke-linejoin:miter;stroke-opacity:1"
                   d="m 267.18535,133.12337 c -33.61543,41.20209 -47.97234,61.24173 -52.02286,95.96449"
                   id="path3335"
                   inkscape:connector-curvature="0"
                   sodipodi:nodetypes="cc" />
                <path
                   style="fill:none;stroke:#000000;stroke-width:1px;stroke-linecap:butt;stroke-linejoin:miter;stroke-opacity:1"
                   d="m 221.87642,200.35979 c -3.87225,34.17683 2.71416,38.99795 11.46882,59.03264"
                   id="path3337"
                   inkscape:connector-curvature="0"
                   sodipodi:nodetypes="cc" />
                <path
                   style="fill:none;stroke:#000000;stroke-width:1px;stroke-linecap:butt;stroke-linejoin:miter;stroke-opacity:1"
                   d="m 228.97812,242.69428 c 9.17803,22.62135 30.73351,31.94266 34.67169,36.39613"
                   id="path3339"
                   inkscape:connector-curvature="0"
                   sodipodi:nodetypes="cc" />
                <path
                   style="fill:none;stroke:#000000;stroke-width:1px;stroke-linecap:butt;stroke-linejoin:miter;stroke-opacity:1"
                   d="m 232.33509,218.98633 c 1.88754,12.50713 9.17607,33.8337 15.77422,44.26247 5.25808,8.31071 8.75276,10.7732 11.2653,16.13747"
                   id="path3341"
                   inkscape:connector-curvature="0"
                   sodipodi:nodetypes="csc" />
                <path
                   style="fill:none;stroke:#000000;stroke-width:1px;stroke-linecap:butt;stroke-linejoin:miter;stroke-opacity:1"
                   d="m 292.94424,159.89241 c 16.3308,-9.93317 24.0753,-0.16836 30.80965,-4.04061"
                   id="path3343"
                   inkscape:connector-curvature="0"
                   sodipodi:nodetypes="cc" />
                <path
                   style="font-size:medium;font-style:normal;font-variant:normal;font-weight:normal;font-stretch:normal;text-indent:0;text-align:start;text-decoration:none;line-height:normal;letter-spacing:normal;word-spacing:normal;text-transform:none;direction:ltr;block-progression:tb;writing-mode:lr-tb;text-anchor:start;baseline-shift:baseline;color:#000000;fill:#000000;fill-opacity:1;stroke:none;stroke-width:1px;marker:none;visibility:visible;display:inline;overflow:visible;enable-background:accumulate;font-family:Sans;-inkscape-font-specification:Sans"
                   d="m 373.59375,208.03125 -0.9375,0.28125 c 7.46508,23.57812 7.7202,40.19556 8.375,53.9375 0.6548,13.74194 1.73685,24.66983 10.90625,36.625 -8.85372,-15.10571 -9.2794,-24.09655 -9.90625,-36.6875 -0.65355,-13.7157 -0.93352,-30.45529 -8.4375,-54.15625 z"
                   id="path3345"
                   inkscape:connector-curvature="0"
                   sodipodi:nodetypes="ccsccc" />
                <path
                   style="font-size:medium;font-style:normal;font-variant:normal;font-weight:normal;font-stretch:normal;text-indent:0;text-align:start;text-decoration:none;line-height:normal;letter-spacing:normal;word-spacing:normal;text-transform:none;direction:ltr;block-progression:tb;writing-mode:lr-tb;text-anchor:start;baseline-shift:baseline;color:#000000;fill:#000000;fill-opacity:1;stroke:none;stroke-width:1px;marker:none;visibility:visible;display:inline;overflow:visible;enable-background:accumulate;font-family:Sans;-inkscape-font-specification:Sans"
                   d="m 224.3125,147.03125 c -15.94066,27.74856 -21.68117,49.6523 -21.125,67.5 0.55617,17.8477 7.42329,31.59882 16.625,42.96875 9.20171,11.36993 20.74076,20.37595 30.625,28.8125 9.88424,8.43655 19.10207,10.74922 14.75158,26.76523 8.49252,-19.53282 -11.89335,-28.27332 -12.66676,-28.9438 -9.90843,-8.4572 -22.82126,-16.00565 -31.92857,-27.25893 -9.10731,-11.25328 -15.85756,-24.7674 -16.40625,-42.375 -0.54869,-17.6076 5.12085,-39.35853 21,-67 z"
                   id="path3347"
                   inkscape:connector-curvature="0"
                   sodipodi:nodetypes="csssccsscc" />
                <path
                   style="fill:none;stroke:#000000;stroke-width:1px;stroke-linecap:butt;stroke-linejoin:miter;stroke-opacity:1"
                   d="m 331.53093,108.14506 c 6.5389,1.04394 20.84333,30.4537 37.31562,41.76455 8.34729,6.96473 12.97183,19.12151 19.45774,28.68226"
                   id="path3349"
                   inkscape:connector-curvature="0"
                   sodipodi:nodetypes="ccc" />
                <path
                   style="font-size:medium;font-style:normal;font-variant:normal;font-weight:normal;font-stretch:normal;text-indent:0;text-align:start;text-decoration:none;line-height:normal;letter-spacing:normal;word-spacing:normal;text-transform:none;direction:ltr;block-progression:tb;writing-mode:lr-tb;text-anchor:start;baseline-shift:baseline;color:#000000;fill:#000000;fill-opacity:1;stroke:none;stroke-width:1px;marker:none;visibility:visible;display:inline;overflow:visible;enable-background:accumulate;font-family:Sans;-inkscape-font-specification:Sans"
                   d="m 247.99968,193.59153 c -9.82281,1.79144 -5.15996,5.41355 -8.84343,8.90847 -0.72941,0.32902 -1.53505,0.53195 -2.40625,1.09375 -1.74241,1.12361 -3.53853,3.58498 -5.8125,11.125 L 231.90625,215 c 2.24984,-7.45998 4.80679,-9.04727 4.80679,-9.04727 0,0 1.51426,5.35761 -3.83291,10.26307 -2.3899,2.86434 -1.33378,8.72842 1.37308,8.02608 l 1.30205,-2.67523 c -1.72964,-0.36169 -2.73137,-3.43631 -1.59628,-3.75065 1.46098,-0.40459 2.54732,-2.506 3.05896,-4.19352 -0.32297,-2.79814 3.15472,2.25136 3.76529,3.58752 2.01112,-0.0824 3.60833,3.18466 2.39905,3.40703 -3.30944,0.60856 -5.80245,1.77768 -5.69053,3.97101 0.89261,0.59692 1.78522,0.37314 3.37231,0.14927 0.36563,-4.63362 1.36262,0.0767 9.3044,-5.94591 1.66337,-1.02226 1.48927,-2.38204 1.04014,-3.14974 1.19966,-9.30573 -7.13399,-7.18411 -4.54537,-9.35564 2.19578,-1.1621 2.96299,-5.53848 -3.05552,-5.09344 3.4843,-2.40742 5.3271,-4.56229 4.39197,-7.60105 z"
                   id="path3351"
                   inkscape:connector-curvature="0"
                   sodipodi:nodetypes="ccsccccccsccsccccccc" />
                <path
                   style="font-size:medium;font-style:normal;font-variant:normal;font-weight:normal;font-stretch:normal;text-indent:0;text-align:start;text-decoration:none;line-height:normal;letter-spacing:normal;word-spacing:normal;text-transform:none;direction:ltr;block-progression:tb;writing-mode:lr-tb;text-anchor:start;baseline-shift:baseline;color:#000000;fill:#000000;fill-opacity:1;stroke:none;stroke-width:1px;marker:none;visibility:visible;display:inline;overflow:visible;enable-background:accumulate;font-family:Sans;-inkscape-font-specification:Sans"
                   d="m 266.75,229.8125 c -0.0645,1.33643 -1.07522,1.14678 -1.91101,1.80869 -0.50298,0.58185 0.33968,2.11678 1.13135,1.53792 4.86551,-4.92972 2.98151,1.1713 5.46748,0.81472 2.87241,-0.31885 3.37727,-2.658 5.01856,-4.11326 0.55726,-0.64154 1.93528,-0.24135 2.20844,-1.23013 0.76983,-0.67058 -0.41752,-1.15175 -2.17307,-1.25412 -2.54383,-0.24503 -3.63557,1.94062 -4.31694,0.68544 -3.46645,0.73529 -3.34968,-0.0162 -5.42481,1.75074 z"
                   id="path3353"
                   inkscape:connector-curvature="0"
                   sodipodi:nodetypes="ccccccccc" />
                <path
                   style="font-size:medium;font-style:normal;font-variant:normal;font-weight:normal;font-stretch:normal;text-indent:0;text-align:start;text-decoration:none;line-height:normal;letter-spacing:normal;word-spacing:normal;text-transform:none;direction:ltr;block-progression:tb;writing-mode:lr-tb;text-anchor:start;baseline-shift:baseline;color:#000000;fill:#000000;fill-opacity:1;stroke:none;stroke-width:1px;marker:none;visibility:visible;display:inline;overflow:visible;enable-background:accumulate;font-family:Sans;-inkscape-font-specification:Sans"
                   d="m 313.98661,169.27679 c -4.72808,0.0697 1.09959,3.10067 -2.74429,2.74699 -14.76421,-1.35849 -18.12356,-0.86049 -20.01832,7.20376 -1.52795,5.81176 1.86478,-0.0659 2.5636,4.69018 -0.14508,-1.66679 1.21643,-4.0734 2.19901,-5.13642 0.98258,-1.06302 2.04177,1.66597 4.58482,-0.53571 3.03632,-2.62874 15.75108,-1.67705 21.36161,-1.26786 5.58822,0.40756 2.70086,0.54127 8.04149,2.04585 5.34062,1.50458 10.69495,2.68361 16.33797,1.78897 1.46274,-2.35364 -4.14559,-1.17174 -1.6727,-4.40926 -4.52067,0.0875 -1.30126,0.77521 -6.45931,0.32687 0.21871,-0.0258 1.86928,-7.45974 -9.92659,-3.65141 7.43222,-1.44071 7.3899,4.64635 -0.24045,1.90989 -2.44455,-0.87669 0.0737,-2.0554 -1.35271,-2.15943 -2.45543,-0.12203 -3.03478,-1.56845 -3.77523,-1.67192 -9.62663,-1.34519 1.98083,-1.84699 2.85871,-0.58395 1.50121,1.16721 3.28804,-0.43702 3.33172,-1.83217 -3.36661,-3.34059 -10.05955,1.87493 -15.08933,0.53562 z"
                   id="path3355"
                   inkscape:connector-curvature="0"
                   sodipodi:nodetypes="csccssssccccscsccc" />
                <path
                   style="font-size:medium;font-style:normal;font-variant:normal;font-weight:normal;font-stretch:normal;text-indent:0;text-align:start;text-decoration:none;line-height:normal;letter-spacing:normal;word-spacing:normal;text-transform:none;direction:ltr;block-progression:tb;writing-mode:lr-tb;text-anchor:start;baseline-shift:baseline;color:#000000;fill:#000000;fill-opacity:1;stroke:none;stroke-width:1px;marker:none;visibility:visible;display:inline;overflow:visible;enable-background:accumulate;font-family:Sans;-inkscape-font-specification:Sans"
                   d="m 339.15625,184.375 -38.21875,10.71875 c -2.09491,1.33307 -1.91698,5.06525 2.04902,3.99921 12.83476,-1.56197 24.55576,-11.16572 27.31479,-7.97593 9.47471,-8.23788 6.44877,-0.8184 10.99898,-4.63686 1.17935,-0.57545 1.09602,-2.91867 -2.14404,-2.10517 z"
                   id="path3357"
                   inkscape:connector-curvature="0"
                   sodipodi:nodetypes="cccccc" />
                <path
                   style="fill:#000000;fill-opacity:1;stroke:#000000;stroke-width:1px;stroke-linecap:butt;stroke-linejoin:miter;stroke-opacity:1"
                   d="m 301.16072,181.64789 c -6.07143,1.33929 1.42857,10.625 5.17857,9.55357 2.42822,-0.69378 8.66071,-4.82142 8.66071,-4.82142 0.98214,-2.05357 -1.78571,-8.48214 -6.78571,-9.19643 -3.24188,-0.87112 -8.60021,-0.76396 -7.05357,4.46428 z"
                   id="path3359"
                   inkscape:connector-curvature="0"
                   sodipodi:nodetypes="csccc" />
                <path
                   style="font-size:medium;font-style:normal;font-variant:normal;font-weight:normal;font-stretch:normal;text-indent:0;text-align:start;text-decoration:none;line-height:normal;letter-spacing:normal;word-spacing:normal;text-transform:none;direction:ltr;block-progression:tb;writing-mode:lr-tb;text-anchor:start;baseline-shift:baseline;color:#000000;fill:#000000;fill-opacity:1;stroke:none;stroke-width:1px;marker:none;visibility:visible;display:inline;overflow:visible;enable-background:accumulate;font-family:Sans;-inkscape-font-specification:Sans"
                   d="m 252.69385,264.71494 c 2.67124,8.56174 20.50403,19.62181 26.9624,24.44131 l 2.49159,-0.31758 1.54394,0.31631 c 13.27808,-2.53162 30.72303,-8.21996 49.68322,-16.68623 -16.00365,3.80801 -23.87117,5.20571 -28.67529,7.15371 -5.50173,1.11312 -13.61397,0.43041 -18.28513,1.26769 0.5301,2.9745 -4.40372,1.47991 -6.09679,0.45976 -0.72855,-0.52865 -1.36781,1.44271 -0.48921,2.34264 5.2762,0.84128 0.43819,2.06771 1.43284,4.5262 -11.32549,-8.23296 -24.15373,-17.20541 -28.56757,-23.50381 z"
                   id="path3361"
                   inkscape:connector-curvature="0"
                   sodipodi:nodetypes="ccccccccccc" />
                <path
                   style="font-size:medium;font-style:normal;font-variant:normal;font-weight:normal;font-stretch:normal;text-indent:0;text-align:start;text-decoration:none;line-height:normal;letter-spacing:normal;word-spacing:normal;text-transform:none;direction:ltr;block-progression:tb;writing-mode:lr-tb;text-anchor:start;baseline-shift:baseline;color:#000000;fill:#000000;fill-opacity:1;stroke:none;stroke-width:1px;marker:none;visibility:visible;display:inline;overflow:visible;enable-background:accumulate;font-family:Sans;-inkscape-font-specification:Sans"
                   d="m 324.625,186.96875 c -4.60185,-0.3916 -18.77252,7.43123 -26.4375,6.65625 5.46169,0.78024 10.45582,-1.14011 15.375,-2.9375 4.91918,-1.79739 9.73387,-3.47667 14.875,-2.375 l 5.75446,-2.39732 c -1.36637,-0.29279 -8.24947,1.02543 -9.56696,1.05357 z"
                   id="path3363"
                   inkscape:connector-curvature="0"
                   sodipodi:nodetypes="ccsccc" />
                <path
                   style="font-size:medium;font-style:normal;font-variant:normal;font-weight:normal;font-stretch:normal;text-indent:0;text-align:start;text-decoration:none;line-height:normal;letter-spacing:normal;word-spacing:normal;text-transform:none;direction:ltr;block-progression:tb;writing-mode:lr-tb;text-anchor:start;baseline-shift:baseline;color:#000000;fill:#000000;fill-opacity:1;stroke:none;stroke-width:1px;marker:none;visibility:visible;display:inline;overflow:visible;enable-background:accumulate;font-family:Sans;-inkscape-font-specification:Sans"
                   d="m 309.15625,240.10714 c 0,0 -1.27722,-1.69503 -9.6875,3.03572 -3.91799,-0.33772 -16.98771,-1.42209 -23.34375,3.60714 -2.29252,1.81396 -1.60692,-0.12601 -4.29018,0.58036 -5.13894,1.35283 -8.62231,10.33766 -4.34375,6.89285 -0.17262,1.64584 -1.77381,2.93453 -0.25,4.04465 1.98776,-5.44191 8.24244,-3.42969 8.58929,-6.11607 10.46625,-2.73069 29.49789,-7.31466 36.97054,-9.9126 -9.23796,4.92438 -16.35231,9.63904 -22.43614,11.34427 -6.63461,1.85961 -9.80474,4.049 -12.25583,4.23162 -4.34764,0.35469 -3.1878,2.85159 -2.26518,2.76751 -4.48661,3.67336 2.36607,5.11458 3.14732,1.91295 26.49605,-4.47748 17.17116,-7.91845 22.62947,-13.12054 7.35394,-0.11367 10.41314,-6.82771 13.5,-8.65179 l -0.0714,-1.47767 c -0.0436,-0.96076 -3.73053,1.82567 -5.89286,0.8616 z"
                   id="path3365"
                   inkscape:connector-curvature="0"
                   sodipodi:nodetypes="ccssccccscccccccc" />
                <path
                   sodipodi:nodetypes="ssccssccccsccccsscccsccscccssscccccscssccccsss"
                   inkscape:connector-curvature="0"
                   id="path3367"
                   d="m 395.92411,425.04464 c -8.98644,14.84878 -13.77476,23.92704 -17.41965,46.21429 -2.68575,16.42246 2.88109,36.45506 25.08929,72.14732 0.012,0.0319 0.0192,0.0618 0.0312,0.0937 18.66823,49.66583 -2.58652,88.45972 -35.64286,100.07589 -32.76042,11.51219 -24.77972,10.16431 -59.27678,24.41518 -23.15518,9.5655 -23.50669,14.23185 -25.92406,21.54008 -4.29562,11.68711 -5.41957,19.83904 -1.4375,28 l 0,0.0625 0,0.0625 c 9.30338,28.74829 3.8309,46.10376 -6.37054,70.57589 -14.31921,34.35023 -21.8539,39.21007 -21.45089,67.38393 l -0.35714,6.45977 c -0.51509,61.31921 -11.26773,53.00096 -17.11607,74.89085 -2.27231,15.30802 -5.08033,17.70287 -8.42406,21.93946 -4.77381,7.16369 -7.13232,2.16544 -9.5,0.0625 -7.22955,-6.42118 -11.63183,-48.6928 -11.6802,-50.65625 -0.41018,-16.65133 -5.33472,-40.76317 11.3796,-64.35596 16.33461,-25.59442 21.73743,-51.60223 13.98805,-83.58149 -1.9518,-19.73143 -9.93599,-30.65088 -9.60972,-55.87744 -3.17613,-21.61739 -1.56381,-27.95201 9.32768,-49.14853 C 242.42195,634.15231 261.62638,608.0949 304.34375,579 l -0.5625,-0.8125 c -42.80888,29.15723 -65.19235,54.78925 -76.1875,76.1875 -10.99515,21.39825 -12.86148,37.54182 -7.875,50.59375 -4.3833,11.42893 9.1636,39.77792 8.06329,56.25761 2.32595,51.98217 -5.46654,70.23122 -15.06324,80.24234 -14.78966,22.08912 -16.35035,50.14427 -12.95611,67.0313 6.86279,34.14385 11.48825,49.95623 16.73731,56.3125 2.62453,3.17814 5.25742,3.9863 7.59375,3.3125 2.33633,-0.6738 4.30458,-2.67119 6.09375,-4.84375 l 0.0625,-0.0625 0.0312,-0.125 10.62342,-19.67069 c 13.7165,-21.10841 26.14387,-50.83369 20.76051,-112.65967 -1.6028,-11.79103 5.75131,-15.39433 17.28125,-41.79905 8.76533,-20.0735 14.48836,-43.32662 5.16509,-72.25315 -1.85097,-12.14456 -4.97273,-17.62757 -0.36152,-26.89864 3.24362,-6.52147 12.36691,-14.94554 21.40179,-18.20536 30.3353,-10.94509 65.75171,-24.29602 85.14732,-36.08477 19.19099,-11.87632 33.06739,-42.44117 14.23214,-92.45982 l -0.0312,-0.0312 0,-0.0625 c -22.19022,-35.63884 -23.61884,-58.13328 -20.74107,-74.23214 2.87777,-16.09886 6.3061,-20.03652 14.53125,-40.04911 3.14771,-7.65868 0.93643,-9.09992 -2.36607,-3.64301 z"
                   style="font-size:medium;font-style:normal;font-variant:normal;font-weight:normal;font-stretch:normal;text-indent:0;text-align:start;text-decoration:none;line-height:normal;letter-spacing:normal;word-spacing:normal;text-transform:none;direction:ltr;block-progression:tb;writing-mode:lr-tb;text-anchor:start;baseline-shift:baseline;color:#000000;fill:#000000;fill-opacity:1;stroke:none;stroke-width:1px;marker:none;visibility:visible;display:inline;overflow:visible;enable-background:accumulate;font-family:Sans;-inkscape-font-specification:Sans" />
                <path
                   style="font-size:medium;font-style:normal;font-variant:normal;font-weight:normal;font-stretch:normal;text-indent:0;text-align:start;text-decoration:none;line-height:normal;letter-spacing:normal;word-spacing:normal;text-transform:none;direction:ltr;block-progression:tb;writing-mode:lr-tb;text-anchor:start;baseline-shift:baseline;color:#000000;fill:#000000;fill-opacity:1;stroke:none;stroke-width:1px;marker:none;visibility:visible;display:inline;overflow:visible;enable-background:accumulate;font-family:Sans;-inkscape-font-specification:Sans"
                   d="m 307.22768,534.23661 c -1.02403,-1.1059 -2.44984,1.09177 -0.43816,2.39659 3.00903,2.14531 4.18151,2.5843 7.68369,2.67037 1.33195,0.0327 1.19359,0.75007 -0.36607,1.28119 -1.53768,0.34566 -2.05633,0.65839 -4.70089,0.97768 -1.93378,0.23347 -3.90614,0.0583 -5.96875,-1 -2.06261,-1.05833 -3.95959,-2.58726 -4.70089,-3.75893 -0.92113,-3.13096 -3.2262,-3.31547 -1.8259,0.33929 1.74316,2.47211 3.35505,3.10356 5.77679,3.84821 2.74529,0.84414 3.74511,1.3288 5.83036,1.18304 5.89159,-0.41183 7.45131,-2.95407 10.95089,-2.83036 1.19022,0.31533 2.30123,-0.75312 0.96501,-1.09236 -2.50398,-0.72975 -4.25148,1.63756 -7.62692,-2.62359 -0.6493,-0.76978 0.61992,1.2827 -0.65235,1.76545 -1.10163,0.418 -2.33042,0.49127 -4.92681,-3.15658 z"
                   id="path3369"
                   inkscape:connector-curvature="0"
                   sodipodi:nodetypes="ccscscccsscccsc" />
                <path
                   style="fill:none;stroke:#000000;stroke-width:1px;stroke-linecap:butt;stroke-linejoin:miter;stroke-opacity:1"
                   d="m 385.3732,111.40509 c 52.57119,104.85462 15.07716,125.84874 11.99927,152.06385 -1.76684,15.04861 4.10189,39.20281 9.18855,31.30421"
                   id="path3371"
                   inkscape:connector-curvature="0"
                   sodipodi:nodetypes="csc" />
                <path
                   style="font-size:medium;font-style:normal;font-variant:normal;font-weight:normal;font-stretch:normal;text-indent:0;text-align:start;text-decoration:none;line-height:normal;letter-spacing:normal;word-spacing:normal;text-transform:none;direction:ltr;block-progression:tb;writing-mode:lr-tb;text-anchor:start;baseline-shift:baseline;color:#000000;fill:#000000;fill-opacity:1;stroke:none;stroke-width:1px;marker:none;visibility:visible;display:inline;overflow:visible;enable-background:accumulate;font-family:Sans;-inkscape-font-specification:Sans"
                   d="m 373.74168,305.93758 c 0.17748,2.32723 0.0639,3.85774 8.28656,12.61239 -0.39246,1.87533 -1.73247,-0.64099 -4.7202,0.54824 -1.45919,0.58081 -4.20147,3.046 -9.45693,5.04234 -5.25545,1.99634 -11.92295,7.30221 -11.87343,7.31927 l 2.1384,0.7366 c 1.0997,-2.04613 6.21136,-6.91767 14.44604,-8.31823 3.25857,-0.48736 10.05075,-3.1187 17.8401,-4.0343 3.89467,-0.4578 15.59697,-1.38985 15.59697,-1.38985 -17.9877,-0.82526 -23.49905,1.11998 -32.25751,-12.51646 z m 33.54559,14.7288 c 5.14763,0.012 6.17155,-0.0716 12.6523,0.79479 20.55247,2.74755 29.08758,10.09828 39.98193,45.28151 5.47792,17.69091 11.87259,34.83976 17.33403,61.94087 3.96458,17.16694 0.88006,39.87899 3.80033,47.72531 2.73273,7.34243 1.9393,11.59052 2.70009,20.77855 1.19245,-2.42676 2.64107,-10.0014 5.11262,5.58826 17.01066,52.12395 -1.56048,80.19001 -4.77933,110.85374 l 1,0.125 c 3.1775,-30.2698 21.67524,-52.62143 7.09489,-109.32266 -2.87152,-11.16701 -9.33752,-22.86171 -9.76899,-33.64163 -0.926,-23.13516 -1.95264,-36.38764 -6.36379,-55.61736 -8.63643,-37.64913 -16.78565,-51.81207 -19.97637,-65.71744 -3.29956,-14.37974 -9.50726,-24.60341 -24.65285,-28.86284 -7.45747,-2.09728 -16.537,-2.27997 -22.78075,-2.0132 m -34.80077,-19.46942 c -0.54653,-4.81838 -2.93906,-20.26497 3.75127,-39.44323 11.52805,-33.04589 -4.26298,-54.72899 -16.12754,-81.41212 l -5e-5,-5e-5 c 9.15077,31.11034 22.00173,63.30884 13.80357,84.31696 -5.92512,22.80435 -4.12171,28.31196 -2.82081,38.67866 z"
                   id="path3373"
                   inkscape:connector-curvature="0"
                   sodipodi:nodetypes="ccsssccsccccscsccccsssssccsscccc" />
                <path
                   sodipodi:nodetypes="cccccc"
                   inkscape:connector-curvature="0"
                   id="path3375"
                   d="m 302.90625,283.8125 -0.18365,2.2148 c 4.40233,10.86185 7.08363,17.2891 0.0951,30.33059 l 0.2774,5.15988 c 8.66876,-13.93801 7.53073,-28.78495 -0.18877,-37.70527 z"
                   style="font-size:medium;font-style:normal;font-variant:normal;font-weight:normal;font-stretch:normal;text-indent:0;text-align:start;text-decoration:none;line-height:normal;letter-spacing:normal;word-spacing:normal;text-transform:none;direction:ltr;block-progression:tb;writing-mode:lr-tb;text-anchor:start;baseline-shift:baseline;color:#000000;fill:#000000;fill-opacity:1;stroke:none;stroke-width:1px;marker:none;visibility:visible;display:inline;overflow:visible;enable-background:accumulate;font-family:Sans;-inkscape-font-specification:Sans" />
                <path
                   sodipodi:nodetypes="scccscccccsccss"
                   inkscape:connector-curvature="0"
                   id="path3377"
                   d="m 276.03125,327.84375 c -5.3913,-0.14394 -11.14394,0.5143 -18.5,2.46875 l -0.0625,0.0312 -0.0312,0 c -21.73816,10.29031 -28.54394,30.09955 -30.875,51.34375 -2.33106,21.2442 -2.05936,44.75893 -5.97321,61.27679 l -14.65179,72.12946 0.96875,0.25 17.50893,-72.875 c 3.97919,-16.7936 0.80055,-39.55364 3.11607,-60.65625 7.26859,-27.10542 10.86301,-39.49139 28.82847,-46.90065 13.6188,-5.61662 30.44414,-4.60967 49.04648,-0.6618 l 0.1875,-1 c -10.13824,-2.13234 -17.21029,-4.14295 -24.25,-5 -1.75993,-0.21426 -3.5154,-0.35827 -5.3125,-0.40625 z"
                   style="font-size:medium;font-style:normal;font-variant:normal;font-weight:normal;font-stretch:normal;text-indent:0;text-align:start;text-decoration:none;line-height:normal;letter-spacing:normal;word-spacing:normal;text-transform:none;direction:ltr;block-progression:tb;writing-mode:lr-tb;text-anchor:start;baseline-shift:baseline;color:#000000;fill:#000000;fill-opacity:1;stroke:none;stroke-width:1px;marker:none;visibility:visible;display:inline;overflow:visible;enable-background:accumulate;font-family:Sans;-inkscape-font-specification:Sans" />
                <path
                   style="fill:none;stroke:#000000;stroke-width:1px;stroke-linecap:butt;stroke-linejoin:miter;stroke-opacity:1"
                   d="m 206.42857,509.50504 c -27.29514,40.82632 -28.07098,46.63059 -50.62763,83.39376 -9.24013,15.0597 -26.63665,13.13632 -39.37856,21.59434 -16.620072,11.03234 -11.94628,10.38272 -23.060157,9.29325"
                   id="path3379"
                   inkscape:connector-curvature="0"
                   sodipodi:nodetypes="cssc" />
                <path
                   style="fill:none;stroke:#000000;stroke-width:1px;stroke-linecap:butt;stroke-linejoin:miter;stroke-opacity:1"
                   d="m 266.78571,470.93361 c -3.92857,14.64286 -15.71428,28.21429 -21.42857,38.57143 4.45816,52.45066 -51.8227,70.53241 -67.22951,105.53046 12.68983,8.44911 6.06915,18.71909 9.72598,24.18551 -0.17357,6.00647 -3.35111,4.46777 -0.69245,20.12264 -3.35893,-0.69118 -5.87479,-4.97765 -7.91123,-10.96615 -3.48726,-10.25491 -5.4085,-4.16001 -14.16943,-8.33194"
                   id="path3381"
                   inkscape:connector-curvature="0"
                   sodipodi:nodetypes="cccccsc" />
                <path
                   style="fill:none;stroke:#000000;stroke-width:1px;stroke-linecap:butt;stroke-linejoin:miter;stroke-opacity:1"
                   d="m 412.85714,417.00504 c 4.76192,33.92857 15.2381,51.07143 32.85715,91.07143 -0.2381,105.71428 23.09523,168.57142 42.14285,175.71428 0,0 5.40355,11.56599 6.11784,14.42314 0.71428,2.85714 4.49492,-7.83612 4.49492,-7.83612"
                   id="path3385"
                   inkscape:connector-curvature="0"
                   sodipodi:nodetypes="cccsc" />
                <path
                   style="fill:none;stroke:#000000;stroke-width:1px;stroke-linecap:butt;stroke-linejoin:miter;stroke-opacity:1"
                   d="m 324.98206,549.40044 c -26.10382,5.37509 -40.3427,-1.61983 -51.05349,-9.53826 -4.88095,-1.72619 -7.1484,8.2098 -3.41622,6.02857 2.78676,-1.62869 2.50366,0.63449 3.98629,1.81063 6.89403,14.73653 82.46565,28.29175 114.25136,-19.26777"
                   id="path3387"
                   inkscape:connector-curvature="0"
                   sodipodi:nodetypes="ccscc" />
                <path
                   style="fill:none;stroke:#000000;stroke-width:1px;stroke-linecap:butt;stroke-linejoin:miter;stroke-opacity:1"
                   d="m 330.71429,372.71932 c -8.45238,2.85714 -46.90476,14.64286 -37.14286,29.64286 -6.90476,-12.85714 -22.02381,3.92857 -31.42857,-41.78571 l 2.5,-3.21429"
                   id="path3389"
                   inkscape:connector-curvature="0"
                   sodipodi:nodetypes="cccc" />
                <path
                   style="fill:none;stroke:#000000;stroke-width:1px;stroke-linecap:butt;stroke-linejoin:miter;stroke-opacity:1"
                   d="m 260,382.00504 c 10,13.33333 26.42857,12.38095 36.42857,27.14286"
                   id="path3391"
                   inkscape:connector-curvature="0"
                   sodipodi:nodetypes="cc" />
                <path
                   style="fill:none;stroke:#000000;stroke-width:1px;stroke-linecap:butt;stroke-linejoin:miter;stroke-opacity:1"
                   d="m 287.85714,400.57647 c 8.92857,-15.59524 66.42858,-12.61905 94.28572,-66.42857 7.41419,65.37637 22.04408,42.57807 26.81545,65.35279 4.00947,19.13799 -8.12205,31.36304 -16.90763,35.58679 -86.8489,25.47104 -86.33639,-14.15387 -95.62211,-7.7253"
                   id="path3393"
                   inkscape:connector-curvature="0"
                   sodipodi:nodetypes="ccscc" />
              </g>
            </g>
            <path
               sodipodi:nodetypes="ccsccccsccccscc"
               inkscape:connector-curvature="0"
               id="path3397"
               d="m 224.91964,832.02937 c -3.60593,19.15875 -12.88363,17.66658 -17.13402,46.6179 -2.73025,15.39665 4.14139,31.53329 10.79911,37.95982 3.33112,3.21545 9.21768,4.99831 13.05804,4.42857 16.6199,-11.08659 17.74473,-28.23403 19.29464,-40.03571 0.854,-6.82003 0.47778,-11.33229 2.21875,-14.78125 l -0.875,-0.46875 c -5.45513,-9.83421 -1.21961,12.27682 -4.11152,18.408 -10.43873,22.13126 -1.14861,12.36525 -7.95098,24.7795 -2.74287,5.08344 -6.15456,7.57889 -9.625,8.09375 -19.16481,-0.7442 -20.72196,-32.94862 -19.91965,-38.88388 3.14284,-24.16239 12.64132,-30.7658 17.82144,-44.53313 2.51293,-7.89479 0.86558,-6.43446 0.35991,-5.79446 -0.59229,0.74963 -2.26315,-0.98152 -2.50724,1.70964 z"
               style="font-size:medium;font-style:normal;font-variant:normal;font-weight:normal;font-stretch:normal;text-indent:0;text-align:start;text-decoration:none;line-height:normal;letter-spacing:normal;word-spacing:normal;text-transform:none;direction:ltr;block-progression:tb;writing-mode:lr-tb;text-anchor:start;baseline-shift:baseline;color:#000000;fill:#000000;fill-opacity:1;stroke:none;stroke-width:1px;marker:none;visibility:visible;display:inline;overflow:visible;enable-background:accumulate;font-family:Sans;-inkscape-font-specification:Sans" />
            <path
               sodipodi:nodetypes="ccc"
               inkscape:connector-curvature="0"
               id="path3399"
               d="m 233.125,813.3125 c 6.95088,12.73046 22.89771,12.6361 30.88388,1.58106 -13.96762,7.41701 -19.35877,5.04491 -30.88388,-1.58106 z"
               style="font-size:medium;font-style:normal;font-variant:normal;font-weight:normal;font-stretch:normal;text-indent:0;text-align:start;text-decoration:none;line-height:normal;letter-spacing:normal;word-spacing:normal;text-transform:none;direction:ltr;block-progression:tb;writing-mode:lr-tb;text-anchor:start;baseline-shift:baseline;color:#000000;fill:#000000;fill-opacity:1;stroke:none;stroke-width:1px;marker:none;visibility:visible;display:inline;overflow:visible;enable-background:accumulate;font-family:Sans;-inkscape-font-specification:Sans" />
            <path
               sodipodi:nodetypes="csc"
               inkscape:connector-curvature="0"
               id="path3401"
               d="m 235.76601,807.93065 c 7.61452,8.69152 18.79745,2.19224 24.6752,3.84448 2.87864,0.80919 -2.07474,7.67231 -14.97414,5.60032"
               style="fill:none;stroke:#000000;stroke-width:1px;stroke-linecap:butt;stroke-linejoin:miter;stroke-opacity:1" />
            <path
               style="font-size:medium;font-style:normal;font-variant:normal;font-weight:normal;font-stretch:normal;text-indent:0;text-align:start;text-decoration:none;line-height:normal;letter-spacing:normal;word-spacing:normal;text-transform:none;direction:ltr;block-progression:tb;writing-mode:lr-tb;text-anchor:start;baseline-shift:baseline;color:#000000;fill:#000000;fill-opacity:1;stroke:none;stroke-width:1px;marker:none;visibility:visible;display:inline;overflow:visible;enable-background:accumulate;font-family:Sans;-inkscape-font-specification:Sans"
               d="m 264.0625,836.5625 c 0.0139,-0.7371 -1.14018,-0.65345 -1,0.15625 1.20663,22.06284 6.69706,23.28848 7.30122,29.7 0.94944,10.07583 -6.78736,17.38288 -8.83596,32.73084 -2.57489,8.46018 -9.44019,37.05649 -1.88801,45.62246 2.43373,5.24126 -7.64323,-0.43268 -11.796,-3.02651 -3.67263,-2.58664 -4.89881,-0.23215 -3.28571,1.21428 0.95307,1.60929 3.28853,4.60453 6.09821,7.47322 2.90778,3.56398 4.20506,6.74916 10.9375,6.12946 1.16082,-0.1234 2.07263,-0.55584 2.6875,-1.21875 2.37892,-5.34177 3.4616,-15.94266 -0.95733,-16.9126 -5.9317,-0.36901 4.87233,-43.0466 5.21551,-43.79726 9.34374,-20.43837 6.83737,-26.19937 3.36677,-36.54009 -2.2764,-6.78259 -5.77657,-9.66553 -7.48661,-20.10268 z"
               id="path3403"
               inkscape:connector-curvature="0"
               sodipodi:nodetypes="ccsccccccccsscc" />
            <path
               style="font-size:medium;font-style:normal;font-variant:normal;font-weight:normal;font-stretch:normal;text-indent:0;text-align:start;text-decoration:none;line-height:normal;letter-spacing:normal;word-spacing:normal;text-transform:none;direction:ltr;block-progression:tb;writing-mode:lr-tb;text-anchor:start;baseline-shift:baseline;opacity:0.98999999;color:#000000;fill:#00000f;fill-opacity:0.94117647;stroke:none;stroke-width:1px;marker:none;visibility:visible;display:inline;overflow:visible;enable-background:accumulate;font-family:Sans;-inkscape-font-specification:Sans"
               d="m 327.5625,91.96875 c -39.6838,-13.588266 -62.09006,-9.14399 -77.53125,3.6875 -15.46706,12.85298 -23.93176,33.9319 -36.15625,53.375 -15.75339,25.05584 -21.4056,43.90229 -19.4375,59.53125 1.9681,15.62896 13.85275,27.18847 26.0625,39.9375 -11.28473,-12.67263 -22.21054,-26.04083 -24.30489,-40.44131 -1.92593,-15.29415 2.8331,-33.54032 18.52364,-58.49619 12.28653,-19.54178 20.60143,-37.80898 35.43242,-50.852157 12.91741,-11.360268 37.64951,-19.354335 77.28633,-5.741593 l 0.1875,0.0625 0.1875,-0.09375 c 22.07721,-10.843562 36.21228,-11.366629 48.45606,-3.408788 12.24378,7.957841 20.04439,25.971858 29.40563,48.575888 6.68917,16.15193 16.0912,19.05056 21.70081,27.10522 5.60961,8.05466 9.74271,17.51588 6.37054,43.61161 -2.43265,18.82517 -6.93594,28.05565 -10.68304,35.17857 -4.75934,9.04711 -10.35917,16.76368 -9.17857,23.44643 1.39636,7.90409 5.76209,12.84488 5.83477,16.17857 -2.21342,13.22823 -6.98362,14.01285 -7.09375,21.1875 5.69808,-11.53738 7.83839,-16.81825 8.09375,-21.15625 0.25493,-4.33066 -1.40037,-7.52949 -3.15625,-14.875 -0.003,-0.0125 0.003,-0.0188 0,-0.0312 0.0873,-11.68943 2.93162,-17.06807 6.40625,-24.3125 3.48857,-7.27348 9.01421,-17.10128 11.45982,-36.02679 3.3879,-26.21747 -1.49287,-36.93835 -7.24107,-45.19196 -5.74817,-8.25361 -13.59939,-13.24006 -19.125,-26.84375 C 399.83173,113.64964 389.91227,95.343666 377.33609,87.169783 358.41354,75.731588 340.86924,85.544442 327.5625,91.96875 z"
               id="path3405"
               inkscape:connector-curvature="0"
               sodipodi:nodetypes="csssccsscccssssssccsccsssscc" />
            <path
               sodipodi:nodetypes="cscc"
               inkscape:connector-curvature="0"
               id="path3407"
               d="m 490,613.79075 c 18.21428,5.7143 23.55751,34.7202 25.71429,42.85715 2.61905,9.88095 11.66666,11.90476 12.14285,22.14285 0.3092,5.73586 -12.03906,-10.07889 -17.85714,-12.85714"
               style="fill:none;stroke:#000000;stroke-width:1px;stroke-linecap:butt;stroke-linejoin:miter;stroke-opacity:1" />
            <path
               sodipodi:nodetypes="csssc"
               inkscape:connector-curvature="0"
               id="path3409"
               d="m 506.63778,659.29583 c 0,0 1.19882,7.69376 18.10968,32.0562 2.40582,3.46591 3.82928,4.71037 3.06636,9.36493 -1.01683,6.20366 -2.76995,-4.59027 -12.69365,-11.48924 -5.22379,-3.63159 -12.8657,-8.38777 -16.00777,-16.15125"
               style="fill:none;stroke:#000000;stroke-width:1px;stroke-linecap:butt;stroke-linejoin:miter;stroke-opacity:1" />
            <path
               sodipodi:nodetypes="ccssc"
               inkscape:connector-curvature="0"
               id="path3411"
               d="m 509.72951,685.02806 c 3.36222,6.99142 4.19906,6.65923 5.03589,13.65064 3.25309,8.49614 -0.27739,12.6696 -3.37273,5.53789 -3.0387,-7.00122 -5.05421,-13.07646 -12.06615,-16.20788 -5.40317,-2.41297 -11.07,-11.55689 -17.18367,-19.21797"
               style="fill:none;stroke:#000000;stroke-width:1px;stroke-linecap:butt;stroke-linejoin:miter;stroke-opacity:1" />
            <path
               inkscape:connector-curvature="0"
               id="path3413"
               d="m 485,615.93361 c 2.5,0.71429 8.57143,6.78572 8.57143,6.78572"
               style="fill:none;stroke:#000000;stroke-width:1px;stroke-linecap:butt;stroke-linejoin:miter;stroke-opacity:1" />
          </g>
        </g>
        <path
           sodipodi:nodetypes="cc"
           inkscape:connector-curvature="0"
           id="path3415"
           d="m 506.82369,679.57892 c 2.14016,1.43863 2.46155,-0.0893 3.05081,-0.34184"
           style="fill:none;stroke:#000000;stroke-width:1px;stroke-linecap:butt;stroke-linejoin:miter;stroke-opacity:1" />
        <path
           sodipodi:nodetypes="cc"
           inkscape:connector-curvature="0"
           id="path3417"
           d="m 495.72219,680.49244 c 2.14016,1.43863 2.46155,-0.0893 3.05081,-0.34184"
           style="fill:none;stroke:#000000;stroke-width:1px;stroke-linecap:butt;stroke-linejoin:miter;stroke-opacity:1;display:inline" />
        <path
           sodipodi:nodetypes="cccsc"
           inkscape:connector-curvature="0"
           id="path3419"
           d="m 167.75394,637.27384 c -17.6987,-6.56598 -20.06127,7.781 -35.41841,7.781 -11.42857,1.19047 -24.64286,-0.11906 -36.428574,8.92856 -7.261906,5.83334 -7.840422,-4.7356 5.989124,-12.44615 18.7862,-10.47408 -27.673735,-7.29037 -20.989125,-2.55384"
           style="fill:none;stroke:#000000;stroke-width:1px;stroke-linecap:butt;stroke-linejoin:miter;stroke-opacity:1" />
      </g>
      <path
         inkscape:transform-center-x="1.5152304"
         inkscape:transform-center-y="0.27243391"
         sodipodi:nodetypes="ccc"
         inkscape:connector-curvature="0"
         id="path3421"
         d="m 224.64536,812.17851 c -6.83791,3.9729 -8.95028,-1.39658 -8.22321,2.86161 0.68978,3.42952 6.25245,1.36106 8.22321,-2.86161 z"
         style="font-size:medium;font-style:normal;font-variant:normal;font-weight:normal;font-stretch:normal;text-indent:0;text-align:start;text-decoration:none;line-height:normal;letter-spacing:normal;word-spacing:normal;text-transform:none;direction:ltr;block-progression:tb;writing-mode:lr-tb;text-anchor:start;baseline-shift:baseline;color:#000000;fill:#000000;fill-opacity:1;stroke:none;stroke-width:1px;marker:none;visibility:visible;display:inline;overflow:visible;enable-background:accumulate;font-family:Sans;-inkscape-font-specification:Sans" />
    </g>
    <path
       transform="translate(-2.7693104,1.4723507)"
       sodipodi:nodetypes="cssscccccssccscsccsscccscscccsscc"
       inkscape:connector-curvature="0"
       id="path4397"
       d="m 254.96875,368.5 c -12.16515,15.83237 -18.7617,28.21743 -20.2289,38.00127 -1.4672,9.78384 2.23199,16.94615 6.51015,22.68623 4.27816,5.74008 9.35718,10.31744 14.21114,14.09756 4.85396,3.78012 9.39312,6.76201 9.85136,10.52744 l 0.0312,0.0937 -1.00893,0.27227 c 18.25446,28.70204 15.94744,50.57332 12.07143,69.79018 -0.002,0.01 0.002,0.0215 0,0.0312 -0.82496,3.26982 -2.83169,5.9987 -5.75,9.03125 -2.92651,3.04108 -6.7542,6.38035 -11.09375,10.84375 -8.67911,8.92681 -19.41157,22.3567 -29.21875,47.15625 l 0,0.0312 c -5.63099,15.54825 -18.18278,40.17162 -24.71875,63.93304 -6.51011,23.66738 -10.29145,48.64437 -2.84821,65.13839 -6.20304,35.04432 0.0557,57.37981 4.10906,69.9734 6.03515,18.75084 5.8749,25.47443 6.26147,33.84803 0.75598,3.65692 -1.72909,10.14428 -1.14286,15.19196 1.66461,-4.99484 5.75532,-10.71785 5.35714,-14.92857 -0.39818,-4.21072 -10.18207,-49.83815 -10.94238,-52.51942 -9.69766,-34.19921 7.06878,-44.13893 1.67453,-55.13683 l 0.0312,-0.15625 -0.0937,-0.15625 c -8.3632,-14.5735 -1.69933,-38.19241 4.8125,-61.86607 6.51183,-23.67366 16.18131,-47.55813 21.83036,-63.15625 9.76109,-24.68301 17.52887,-32.71589 26.5,-41.21875 4.48673,-4.25254 8.17306,-12.18873 11.14791,-15.28003 3.60768,-2.6977 6.34531,-4.63383 6.88388,-10.73075 3.88585,-19.26018 7.06991,-42.46198 -11.34876,-71.42221 -0.63881,-4.22651 -6.22267,-6.72001 -11.01339,-10.45089 -4.87568,-3.79704 -9.99269,-8.33226 -14.1499,-13.91006 -4.15721,-5.5778 -6.64757,-11.92606 -5.21749,-21.4624 -5.42164,-4.95971 12.23225,-24.90119 17.49244,-38.25239 z"
       style="font-size:medium;font-style:normal;font-variant:normal;font-weight:normal;font-stretch:normal;text-indent:0;text-align:start;text-decoration:none;line-height:normal;letter-spacing:normal;word-spacing:normal;text-transform:none;direction:ltr;block-progression:tb;writing-mode:lr-tb;text-anchor:start;baseline-shift:baseline;color:#000000;fill:#000000;fill-opacity:1;stroke:none;stroke-width:1px;marker:none;visibility:visible;display:inline;overflow:visible;enable-background:accumulate;font-family:Sans;-inkscape-font-specification:Sans" />
  </g>
</svg>
